<svg width="44" height="44" viewBox="0 0 44 44" fill="none" xmlns="http://www.w3.org/2000/svg">
<path d="M25.1801 2.18578C26.9535 3.53935 28.2251 3.95592 30.4401 4.03482C31.6023 4.07791 32.6679 4.22841 33.602 4.98412C33.6547 5.02521 33.7075 5.06631 33.7618 5.10866C34.7111 5.94248 34.9525 7.25644 35.1972 8.43236C35.5249 9.9974 35.953 11.1569 37.2026 12.216C37.4701 12.4511 37.716 12.7064 37.9653 12.9605C38.1407 13.1325 38.3215 13.2879 38.5112 13.4436C39.2993 14.1297 39.7095 14.9905 39.8221 16.0257C39.8656 17.2892 39.3379 18.3147 38.7529 19.3948C37.8798 21.0114 37.7069 22.1911 37.9418 24.0085C38.1547 25.6594 38.267 27.0547 37.2114 28.4451C36.5541 29.219 35.5013 29.5895 34.5869 29.9698C34.4883 30.0108 34.3897 30.0518 34.2881 30.0941C34.0924 30.1748 33.8963 30.2544 33.6997 30.3329C32.3366 30.8904 31.6711 31.7732 30.895 32.9944C29.357 35.4063 29.357 35.4063 27.8764 35.8804C26.6915 36.1197 25.5847 35.8207 24.4658 35.4543C24.2539 35.3874 24.0419 35.321 23.8298 35.2547C23.6995 35.2137 23.5695 35.1722 23.4395 35.1302C22.3836 34.7895 21.4931 34.8411 20.4374 35.1643C20.3438 35.1914 20.2502 35.2186 20.1538 35.2466C19.7423 35.3665 19.3332 35.4914 18.9268 35.6275C17.8483 35.9837 16.6708 36.1623 15.5941 35.6917C14.5774 35.1428 13.9971 34.4318 13.4049 33.4662C12.3762 31.7896 11.5637 30.8598 9.72984 30.0896C9.65142 30.0566 9.65142 30.0566 9.57143 30.0228C9.30716 29.9115 9.04256 29.8014 8.77691 29.6934C7.4159 29.1268 6.58853 28.4388 6.01606 27.0701C5.75149 26.1037 5.93173 24.9827 6.05903 24.0085C6.1764 23.1009 6.1764 23.1009 6.22553 22.1877C6.22802 22.0433 6.22802 22.0433 6.23057 21.896C6.09867 20.8876 5.59205 20.0177 5.11292 19.139C4.41192 17.8478 3.94881 16.6283 4.34028 15.1516C4.79643 13.8566 5.90767 12.991 6.91471 12.1156C8.03929 11.1317 8.43211 10.097 8.76002 8.6707C8.77378 8.61093 8.78755 8.55116 8.80173 8.48959C8.85797 8.2441 8.91395 7.99857 8.96794 7.75258C9.22643 6.58151 9.59696 5.5764 10.5707 4.81224C11.3298 4.34622 12.0699 4.11773 12.9565 4.0764C13.0178 4.07324 13.079 4.07007 13.1421 4.06681C13.3359 4.05683 13.5297 4.04772 13.7236 4.0388C15.8815 3.93836 17.204 3.47538 18.897 2.11981C21.1163 0.365678 22.9696 0.488154 25.1801 2.18578ZM13.5786 9.62474C13.5016 9.69619 13.4246 9.76765 13.3453 9.84126C12.0194 11.1114 11.0986 12.7162 10.4848 14.4372C10.4522 14.5279 10.4197 14.6185 10.3861 14.7118C9.71347 16.7298 9.61295 19.0788 10.1411 21.1404C10.1632 21.229 10.1632 21.229 10.1857 21.3195C10.6495 23.1447 11.4828 24.7844 12.7192 26.2107C12.8089 26.316 12.8089 26.316 12.9005 26.4235C14.9126 28.7282 17.7525 30.1895 20.7973 30.5076C22.1272 30.594 23.4491 30.5443 24.7504 30.2497C24.8094 30.2368 24.8684 30.2239 24.9291 30.2106C27.0306 29.7294 28.8325 28.5713 30.4223 27.156C30.4829 27.1027 30.5435 27.0494 30.6059 26.9945C32.6286 25.099 33.9948 22.167 34.1315 19.399C34.1767 15.7914 33.3197 12.6295 30.7661 9.96849C30.6957 9.89272 30.6254 9.81695 30.5529 9.73888C28.4174 7.50554 25.3971 6.30683 22.332 6.18928C19.0255 6.12036 15.9682 7.36226 13.5786 9.62474Z" fill="#B5DDC2"/>
<path opacity="0.4" d="M29.0465 10.0543C29.1233 10.118 29.2001 10.1817 29.2792 10.2473C29.8119 10.7064 30.2535 11.2146 30.6793 11.7731C30.7304 11.839 30.7815 11.9049 30.8341 11.9728C32.585 14.3435 33.1604 17.2701 32.7714 20.1701C32.3106 22.9395 30.7507 25.5146 28.4772 27.172C26.081 28.8465 23.1821 29.5838 20.2742 29.1479C19.9864 29.0962 19.7053 29.0315 19.4215 28.9606C19.3661 28.9467 19.3106 28.9329 19.2535 28.9186C17.3634 28.4301 15.7558 27.4676 14.3512 26.1246C14.2934 26.0722 14.2356 26.0198 14.176 25.9658C12.3239 24.2281 11.2433 21.5673 11.139 19.0579C11.064 15.9056 11.9893 13.1004 14.1464 10.7707C18.0883 6.68653 24.7428 6.42861 29.0465 10.0543ZM25.5231 14.3512C25.2976 14.5662 25.0767 14.7855 24.8567 15.0061C24.7962 15.0666 24.7356 15.1271 24.6733 15.1894C24.5463 15.3163 24.4194 15.4433 24.2926 15.5704C24.1002 15.7633 23.9074 15.9557 23.7145 16.148C23.5904 16.2722 23.4662 16.3965 23.3421 16.5208C23.2853 16.5774 23.2285 16.634 23.1701 16.6923C22.8392 17.0247 22.5248 17.3669 22.2182 17.7218C21.9513 18.0294 21.6669 18.3196 21.382 18.6105C21.322 18.6737 21.262 18.7369 21.2002 18.802C21.1129 18.8908 21.1129 18.8908 21.0238 18.9814C20.9458 19.0619 20.9458 19.0619 20.8663 19.1441C20.7106 19.2496 20.7106 19.2496 20.5447 19.2274C20.2405 19.1184 20.0442 18.8667 19.825 18.638C19.7733 18.5853 19.7216 18.5326 19.6684 18.4784C19.4475 18.2533 19.2281 18.0267 19.0087 17.8002C18.8481 17.6349 18.6867 17.4704 18.5252 17.306C18.4763 17.2549 18.4274 17.2039 18.3771 17.1513C18.0341 16.8022 17.7076 16.5411 17.209 16.4624C16.6636 16.4616 16.3371 16.5119 15.8981 16.8434C15.5469 17.2136 15.4001 17.5238 15.3502 18.0304C15.3804 18.8696 16.0047 19.4068 16.5628 19.96C16.6454 20.0429 16.7281 20.1258 16.8107 20.2089C16.9832 20.3819 17.1563 20.5543 17.3299 20.7263C17.5511 20.9454 17.7706 21.1661 17.9898 21.3873C18.1599 21.5587 18.3309 21.7293 18.5021 21.8996C18.6225 22.0197 18.7422 22.1404 18.8619 22.2612C19.3259 22.7185 19.7537 23.1165 20.4132 23.2454C20.4723 23.2437 20.5315 23.2421 20.5924 23.2403C20.652 23.2402 20.7116 23.2401 20.773 23.24C21.3714 23.1259 21.7419 22.7235 22.1524 22.3085C22.2498 22.2116 22.2498 22.2116 22.3491 22.1128C22.5629 21.8997 22.7758 21.6857 22.9886 21.4716C23.1373 21.3229 23.286 21.1742 23.4348 21.0255C23.7462 20.7141 24.0572 20.4022 24.3679 20.0899C24.7658 19.6901 25.1646 19.2913 25.5637 18.8927C25.8709 18.5859 26.1776 18.2785 26.4842 17.9711C26.6311 17.8239 26.7781 17.6768 26.9252 17.5298C27.1309 17.3242 27.336 17.118 27.541 16.9116C27.6016 16.8512 27.6622 16.7907 27.7247 16.7285C28.2188 16.229 28.5748 15.8192 28.6437 15.1031C28.5997 14.5758 28.4014 14.2339 28.0475 13.8463C27.0177 13.1979 26.3246 13.6129 25.5231 14.3512Z" fill="#B5DDC2"/>
<path opacity="0.4" d="M32.4844 32.7422C32.5411 32.7422 32.5978 32.7422 32.6562 32.7422C32.7299 32.9 32.8035 33.0577 32.8771 33.2155C32.9006 33.2657 32.924 33.3159 32.9481 33.3677C33.0809 33.6521 33.2136 33.9366 33.3464 34.2211C33.6229 34.8139 33.8997 35.4066 34.1769 35.9991C34.4264 36.5321 34.675 37.0656 34.9231 37.5993C35.0578 37.8883 35.1934 38.1769 35.329 38.4654C35.4085 38.6363 35.488 38.8071 35.5674 38.978C35.6037 39.0547 35.6401 39.1313 35.6776 39.2103C35.7101 39.2809 35.7427 39.3515 35.7762 39.4242C35.8045 39.4847 35.8329 39.5453 35.8621 39.6076C35.9325 39.8213 35.9383 39.9952 35.9219 40.2188C35.8359 40.3047 35.8359 40.3047 35.5368 40.3183C35.1316 40.3129 34.7455 40.2481 34.3481 40.1731C34.2747 40.1597 34.2013 40.1464 34.1257 40.1326C33.8936 40.0903 33.6616 40.0471 33.4297 40.0039C33.2714 39.9749 33.113 39.9459 32.9547 39.917C32.5686 39.8463 32.1827 39.7749 31.7969 39.7031C31.2948 40.5084 30.8153 41.3235 30.3463 42.1485C30.2627 42.2952 30.1788 42.4418 30.0949 42.5884C30.0462 42.674 29.9975 42.7596 29.9472 42.8478C29.8203 43.0547 29.8203 43.0547 29.6484 43.2266C29.4444 43.2346 29.4444 43.2346 29.2188 43.1406C29.081 42.9242 28.9778 42.7289 28.8747 42.4964C28.8437 42.43 28.8127 42.3637 28.7808 42.2953C28.68 42.0782 28.5814 41.8602 28.4829 41.6421C28.4142 41.493 28.3454 41.3439 28.2765 41.195C28.1386 40.8964 28.0015 40.5974 27.8652 40.2981C27.6942 39.9228 27.52 39.5491 27.3442 39.1761C27.2511 38.9776 27.158 38.7791 27.0649 38.5806C27.0225 38.4904 26.9801 38.4002 26.9363 38.3073C26.898 38.2246 26.8597 38.1418 26.8202 38.0565C26.7873 37.986 26.7544 37.9154 26.7205 37.8427C26.6376 37.633 26.592 37.4329 26.5547 37.2109C26.6534 37.2035 26.7521 37.1961 26.8538 37.1884C28.0988 37.0815 29.0805 36.7929 30.0781 36.0078C30.1462 35.9568 30.2142 35.9059 30.2844 35.8534C31.0326 35.2195 31.525 34.2199 32.0446 33.3986C32.0991 33.3137 32.1536 33.2288 32.2098 33.1413C32.2585 33.0645 32.3072 32.9877 32.3574 32.9086C32.3993 32.8537 32.4412 32.7988 32.4844 32.7422Z" fill="#B5DDC2"/>
<path opacity="0.4" d="M11.4297 32.8281C11.7954 33.1643 12.0447 33.5244 12.3052 33.9453C13.2899 35.4889 14.2341 36.6331 16.1062 37.0898C16.3892 37.1347 16.6706 37.1546 16.9565 37.1733C17.0643 37.1805 17.1721 37.1877 17.2832 37.1952C17.406 37.203 17.406 37.203 17.5312 37.2109C17.4761 37.5744 17.3518 37.8683 17.1942 38.1996C17.1687 38.2535 17.1432 38.3075 17.117 38.3631C17.0335 38.5396 16.9494 38.7158 16.8652 38.8921C16.7776 39.0769 16.6901 39.2618 16.6026 39.4468C16.5429 39.573 16.4831 39.6993 16.4232 39.8255C16.2236 40.2467 16.0265 40.669 15.8313 41.0922C15.8059 41.1473 15.7804 41.2024 15.7542 41.2592C15.6338 41.5203 15.5136 41.7816 15.3936 42.0429C15.3506 42.1361 15.3076 42.2292 15.2633 42.3252C15.2261 42.4063 15.1888 42.4873 15.1504 42.5708C15.0387 42.7977 14.9144 43.0117 14.7812 43.2266C14.5851 43.2122 14.5851 43.2122 14.3516 43.1406C14.1954 42.9435 14.1954 42.9435 14.0518 42.6827C13.9718 42.5403 13.9718 42.5403 13.8902 42.395C13.8345 42.2926 13.7788 42.1903 13.7231 42.0879C13.6659 41.9851 13.6085 41.8824 13.5509 41.7798C13.4384 41.5791 13.3264 41.3782 13.2147 41.1771C12.9494 40.705 12.6632 40.2473 12.375 39.7891C11.5022 39.8419 10.6604 39.9909 9.80292 40.1561C9.27773 40.2543 8.78474 40.3406 8.25 40.3047C8.22164 40.2763 8.19328 40.248 8.16406 40.2188C8.19844 39.7593 8.33112 39.3898 8.53265 38.9814C8.5759 38.8911 8.5759 38.8911 8.62001 38.7991C8.68209 38.6697 8.74453 38.5405 8.8073 38.4114C8.97475 38.0671 9.13959 37.7215 9.30475 37.3761C9.33859 37.3055 9.37243 37.2349 9.4073 37.1622C9.78329 36.3761 10.1425 35.5825 10.5 34.7878C10.7969 34.1278 11.0985 33.4719 11.4297 32.8281Z" fill="#B5DDC2"/>
</svg>
