<svg width="1296" height="466" viewBox="0 0 1296 466" fill="none" xmlns="http://www.w3.org/2000/svg">
<g clip-path="url(#clip0_755_9401)">
<rect width="1296" height="466" rx="32" fill="#B5DDC2"/>
<rect x="959.953" y="502.548" width="519.575" height="353.913" transform="rotate(-44.0929 959.953 502.548)" fill="#B5DDC2"/>
<path d="M6.84986 -20.0615L11.3937 -11.7534C12.6943 -9.37548 14.6494 -7.42032 17.0274 -6.11976L25.3355 -1.57592L17.0274 2.96792C14.6494 4.26847 12.6943 6.22363 11.3937 8.6016L6.84986 16.9097L2.30602 8.6016C1.00547 6.22363 -0.949697 4.26847 -3.32766 2.96792L-11.6357 -1.57592L-3.32766 -6.11976C-0.949698 -7.42032 1.00547 -9.37548 2.30602 -11.7534L6.84986 -20.0615Z" fill="#01502E" fill-opacity="0.1"/>
<path d="M89.4182 64.9722L93.9621 73.2802C95.2626 75.6582 97.2178 77.6134 99.5957 78.9139L107.904 83.4578L99.5957 88.0016C97.2178 89.3022 95.2626 91.2573 93.9621 93.6353L89.4182 101.943L84.8744 93.6353C83.5738 91.2573 81.6187 89.3022 79.2407 88.0016L70.9326 83.4578L79.2407 78.9139C81.6187 77.6134 83.5738 75.6582 84.8744 73.2802L89.4182 64.9722Z" fill="#01502E" fill-opacity="0.1"/>
<path d="M171.988 -18.8292L176.531 -10.5211C177.832 -8.14318 179.787 -6.18802 182.165 -4.88746L190.473 -0.343622L182.165 4.20022C179.787 5.50077 177.832 7.45593 176.531 9.8339L171.988 18.142L167.444 9.8339C166.143 7.45593 164.188 5.50077 161.81 4.20022L153.502 -0.343622L161.81 -4.88746C164.188 -6.18802 166.143 -8.14318 167.444 -10.5211L171.988 -18.8292Z" fill="#01502E" fill-opacity="0.1"/>
<path d="M6.23365 148.773L10.7775 157.082C12.078 159.459 14.0332 161.415 16.4112 162.715L24.7192 167.259L16.4112 171.803C14.0332 173.103 12.078 175.059 10.7775 177.437L6.23365 185.745L1.68981 177.437C0.389255 175.059 -1.56591 173.103 -3.94387 171.803L-12.252 167.259L-3.94387 162.715C-1.56591 161.415 0.389255 159.459 1.68981 157.082L6.23365 148.773Z" fill="#01502E" fill-opacity="0.1"/>
<path d="M131.32 23.0715L135.863 31.3796C137.164 33.7576 139.119 35.7127 141.497 37.0133L149.805 41.5571L141.497 46.101C139.119 47.4015 137.164 49.3567 135.863 51.7347L131.32 60.0427L126.776 51.7347C125.475 49.3567 123.52 47.4015 121.142 46.101L112.834 41.5571L121.142 37.0133C123.52 35.7127 125.475 33.7576 126.776 31.3796L131.32 23.0715Z" fill="#01502E" fill-opacity="0.1"/>
<path d="M48.134 106.873L52.6779 115.181C53.9784 117.559 55.9336 119.514 58.3116 120.815L66.6196 125.358L58.3116 129.902C55.9336 131.203 53.9784 133.158 52.6779 135.536L48.134 143.844L43.5902 135.536C42.2896 133.158 40.3345 131.203 37.9565 129.902L29.6484 125.358L37.9565 120.815C40.3345 119.514 42.2896 117.559 43.5902 115.181L48.134 106.873Z" fill="#01502E" fill-opacity="0.1"/>
<path d="M48.7502 21.8391L53.2941 30.1472C54.5946 32.5252 56.5498 34.4803 58.9278 35.7809L67.2359 40.3247L58.9278 44.8686C56.5498 46.1691 54.5946 48.1243 53.2941 50.5022L48.7502 58.8103L44.2064 50.5022C42.9059 48.1243 40.9507 46.1691 38.5727 44.8686L30.2646 40.3247L38.5727 35.7809C40.9507 34.4803 42.9059 32.5252 44.2064 30.1472L48.7502 21.8391Z" fill="#01502E" fill-opacity="0.1"/>
<path d="M131.32 106.873L135.863 115.181C137.164 117.559 139.119 119.514 141.497 120.815L149.805 125.358L141.497 129.902C139.119 131.203 137.164 133.158 135.863 135.536L131.32 143.844L126.776 135.536C125.475 133.158 123.52 131.203 121.142 129.902L112.834 125.358L121.142 120.815C123.52 119.514 125.475 117.559 126.776 115.181L131.32 106.873Z" fill="#01502E" fill-opacity="0.1"/>
<path d="M213.888 23.0715L218.432 31.3796C219.732 33.7576 221.688 35.7127 224.065 37.0133L232.374 41.5571L224.065 46.101C221.688 47.4015 219.732 49.3567 218.432 51.7347L213.888 60.0427L209.344 51.7347C208.044 49.3567 206.088 47.4015 203.71 46.101L195.402 41.5571L203.71 37.0133C206.088 35.7127 208.044 33.7576 209.344 31.3796L213.888 23.0715Z" fill="#01502E" fill-opacity="0.1"/>
<path d="M48.134 190.674L52.6779 198.982C53.9784 201.36 55.9336 203.316 58.3116 204.616L66.6196 209.16L58.3116 213.704C55.9336 215.004 53.9784 216.959 52.6779 219.337L48.134 227.646L43.5902 219.337C42.2896 216.959 40.3345 215.004 37.9565 213.704L29.6484 209.16L37.9565 204.616C40.3345 203.316 42.2896 201.36 43.5902 198.982L48.134 190.674Z" fill="#01502E" fill-opacity="0.1"/>
<path d="M90.6506 -20.0615L95.1945 -11.7534C96.495 -9.37548 98.4502 -7.42032 100.828 -6.11976L109.136 -1.57592L100.828 2.96792C98.4502 4.26847 96.495 6.22363 95.1945 8.6016L90.6506 16.9097L86.1068 8.6016C84.8062 6.22363 82.8511 4.26847 80.4731 2.96792L72.165 -1.57592L80.4731 -6.11976C82.8511 -7.42032 84.8062 -9.37548 86.1068 -11.7534L90.6506 -20.0615Z" fill="#01502E" fill-opacity="0.1"/>
<path d="M173.22 64.9722L177.764 73.2802C179.064 75.6582 181.02 77.6134 183.397 78.9139L191.706 83.4578L183.397 88.0016C181.02 89.3022 179.064 91.2573 177.764 93.6353L173.22 101.943L168.676 93.6353C167.376 91.2573 165.42 89.3022 163.042 88.0016L154.734 83.4578L163.042 78.9139C165.42 77.6134 167.376 75.6582 168.676 73.2802L173.22 64.9722Z" fill="#01502E" fill-opacity="0.1"/>
<path d="M7.46607 232.575L12.0099 240.883C13.3105 243.261 15.2656 245.216 17.6436 246.517L25.9517 251.061L17.6436 255.604C15.2656 256.905 13.3105 258.86 12.0099 261.238L7.46607 269.546L2.92223 261.238C1.62168 258.86 -0.333486 256.905 -2.71145 255.604L-11.0195 251.061L-2.71145 246.517C-0.333488 245.216 1.62168 243.261 2.92223 240.883L7.46607 232.575Z" fill="#01502E" fill-opacity="0.1"/>
<path d="M255.789 -18.8292L260.333 -10.5211C261.634 -8.14318 263.589 -6.18802 265.967 -4.88746L274.275 -0.343622L265.967 4.20022C263.589 5.50077 261.634 7.45593 260.333 9.8339L255.789 18.142L251.245 9.8339C249.945 7.45593 247.99 5.50077 245.612 4.20022L237.304 -0.343622L245.612 -4.88746C247.99 -6.18802 249.945 -8.14318 251.245 -10.5211L255.789 -18.8292Z" fill="#01502E" fill-opacity="0.1"/>
<path d="M7.46607 63.7397L12.0099 72.0478C13.3105 74.4258 15.2656 76.381 17.6436 77.6815L25.9517 82.2253L17.6436 86.7692C15.2656 88.0697 13.3105 90.0249 12.0099 92.4029L7.46607 100.711L2.92223 92.4029C1.62168 90.0249 -0.333486 88.0697 -2.71145 86.7692L-11.0195 82.2253L-2.71145 77.6815C-0.333488 76.381 1.62168 74.4258 2.92223 72.0478L7.46607 63.7397Z" fill="#01502E" fill-opacity="0.1"/>
<path d="M90.0344 148.773L94.5783 157.082C95.8788 159.459 97.834 161.415 100.212 162.715L108.52 167.259L100.212 171.803C97.834 173.103 95.8788 175.059 94.5783 177.437L90.0344 185.745L85.4906 177.437C84.19 175.059 82.2349 173.103 79.8569 171.803L71.5488 167.259L79.8569 162.715C82.2349 161.415 84.19 159.459 85.4906 157.082L90.0344 148.773Z" fill="#01502E" fill-opacity="0.1"/>
<path d="M109.137 44.0219L113.681 52.3299C114.981 54.7079 116.937 56.6631 119.314 57.9636L127.623 62.5075L119.314 67.0513C116.937 68.3518 114.981 70.307 113.681 72.685L109.137 80.9931L104.593 72.685C103.293 70.307 101.337 68.3518 98.9594 67.0513L90.6514 62.5075L98.9594 57.9636C101.337 56.6631 103.293 54.7079 104.593 52.3299L109.137 44.0219Z" fill="#01502E" fill-opacity="0.1"/>
<path d="M25.9514 127.823L30.4953 136.131C31.7958 138.509 33.751 140.464 36.1289 141.765L44.437 146.309L36.1289 150.853C33.751 152.153 31.7958 154.108 30.4953 156.486L25.9514 164.794L21.4076 156.486C20.107 154.108 18.1519 152.153 15.7739 150.853L7.46582 146.309L15.7739 141.765C18.1519 140.464 20.107 138.509 21.4076 136.131L25.9514 127.823Z" fill="#01502E" fill-opacity="0.1"/>
<path d="M151.037 2.12109L155.581 10.4292C156.882 12.8071 158.837 14.7623 161.215 16.0629L169.523 20.6067L161.215 25.1505C158.837 26.4511 156.882 28.4062 155.581 30.7842L151.037 39.0923L146.494 30.7842C145.193 28.4063 143.238 26.4511 140.86 25.1505L132.552 20.6067L140.86 16.0629C143.238 14.7623 145.193 12.8071 146.494 10.4292L151.037 2.12109Z" fill="#01502E" fill-opacity="0.1"/>
<path d="M-14.7165 169.724L-10.1727 178.032C-8.87215 180.41 -6.91699 182.365 -4.53903 183.666L3.76905 188.209L-4.53903 192.753C-6.91699 194.054 -8.87215 196.009 -10.1727 198.387L-14.7165 206.695L-19.2604 198.387C-20.5609 196.009 -22.5161 194.054 -24.8941 192.753L-33.2021 188.209L-24.8941 183.666C-22.5161 182.365 -20.5609 180.41 -19.2604 178.032L-14.7165 169.724Z" fill="#01502E" fill-opacity="0.1"/>
<path d="M-14.7165 0.888794L-10.1727 9.19687C-8.87215 11.5748 -6.91699 13.53 -4.53903 14.8306L3.76905 19.3744L-4.53903 23.9182C-6.91699 25.2188 -8.87215 27.174 -10.1727 29.5519L-14.7165 37.86L-19.2604 29.5519C-20.5609 27.174 -22.5161 25.2188 -24.8941 23.9182L-33.2021 19.3744L-24.8941 14.8306C-22.5161 13.53 -20.5609 11.5748 -19.2604 9.19687L-14.7165 0.888794Z" fill="#01502E" fill-opacity="0.1"/>
<path d="M67.8518 85.9226L72.3957 94.2307C73.6962 96.6087 75.6514 98.5638 78.0293 99.8644L86.3374 104.408L78.0293 108.952C75.6514 110.253 73.6962 112.208 72.3957 114.586L67.8518 122.894L63.308 114.586C62.0074 112.208 60.0523 110.253 57.6743 108.952L49.3662 104.408L57.6743 99.8644C60.0523 98.5638 62.0074 96.6087 63.308 94.2307L67.8518 85.9226Z" fill="#01502E"/>
<path d="M68.468 0.888794L73.0119 9.19687C74.3124 11.5748 76.2676 13.53 78.6455 14.8306L86.9536 19.3744L78.6455 23.9182C76.2676 25.2188 74.3124 27.174 73.0119 29.5519L68.468 37.86L63.9242 29.5519C62.6236 27.174 60.6685 25.2188 58.2905 23.9182L49.9824 19.3744L58.2905 14.8306C60.6685 13.53 62.6236 11.5748 63.9242 9.19687L68.468 0.888794Z" fill="#01502E" fill-opacity="0.1"/>
<path d="M151.037 85.9226L155.581 94.2307C156.882 96.6087 158.837 98.5638 161.215 99.8644L169.523 104.408L161.215 108.952C158.837 110.253 156.882 112.208 155.581 114.586L151.037 122.894L146.494 114.586C145.193 112.208 143.238 110.253 140.86 108.952L132.552 104.408L140.86 99.8644C143.238 98.5638 145.193 96.6087 146.494 94.2307L151.037 85.9226Z" fill="#01502E" fill-opacity="0.1"/>
<path d="M-14.7165 253.525L-10.1727 261.833C-8.87215 264.211 -6.91699 266.167 -4.53903 267.467L3.76905 272.011L-4.53903 276.555C-6.91699 277.855 -8.87215 279.811 -10.1727 282.189L-14.7165 290.497L-19.2604 282.189C-20.5609 279.811 -22.5161 277.855 -24.8941 276.555L-33.2021 272.011L-24.8941 267.467C-22.5161 266.167 -20.5609 264.211 -19.2604 261.833L-14.7165 253.525Z" fill="#01502E" fill-opacity="0.1"/>
<path d="M233.607 2.12109L238.151 10.4292C239.451 12.8071 241.406 14.7623 243.784 16.0629L252.092 20.6067L243.784 25.1505C241.406 26.4511 239.451 28.4062 238.151 30.7842L233.607 39.0923L229.063 30.7842C227.762 28.4063 225.807 26.4511 223.429 25.1505L215.121 20.6067L223.429 16.0629C225.807 14.7623 227.762 12.8071 229.063 10.4292L233.607 2.12109Z" fill="#01502E" fill-opacity="0.1"/>
<path d="M-14.7165 84.6902L-10.1727 92.9983C-8.87215 95.3762 -6.91699 97.3314 -4.53903 98.6319L3.76905 103.176L-4.53903 107.72C-6.91699 109.02 -8.87215 110.975 -10.1727 113.353L-14.7165 121.661L-19.2604 113.353C-20.5609 110.975 -22.5161 109.02 -24.8941 107.72L-33.2021 103.176L-24.8941 98.6319C-22.5161 97.3314 -20.5609 95.3762 -19.2604 92.9983L-14.7165 84.6902Z" fill="#01502E" fill-opacity="0.1"/>
<path d="M67.8518 169.724L72.3957 178.032C73.6962 180.41 75.6514 182.365 78.0293 183.666L86.3374 188.209L78.0293 192.753C75.6514 194.054 73.6962 196.009 72.3957 198.387L67.8518 206.695L63.308 198.387C62.0074 196.009 60.0523 194.054 57.6743 192.753L49.3662 188.209L57.6743 183.666C60.0523 182.365 62.0074 180.41 63.308 178.032L67.8518 169.724Z" fill="#01502E" fill-opacity="0.1"/>
<path d="M192.938 44.0219L197.482 52.3299C198.782 54.7079 200.737 56.6631 203.115 57.9636L211.423 62.5075L203.115 67.0513C200.737 68.3518 198.782 70.307 197.482 72.685L192.938 80.9931L188.394 72.685C187.093 70.307 185.138 68.3518 182.76 67.0513L174.452 62.5075L182.76 57.9636C185.138 56.6631 187.093 54.7079 188.394 52.3299L192.938 44.0219Z" fill="#01502E" fill-opacity="0.1"/>
<path d="M27.1838 211.625L31.7277 219.933C33.0282 222.311 34.9834 224.266 37.3614 225.566L45.6694 230.11L37.3614 234.654C34.9834 235.955 33.0282 237.91 31.7277 240.288L27.1838 248.596L22.64 240.288C21.3394 237.91 19.3843 235.955 17.0063 234.654L8.69824 230.11L17.0063 225.566C19.3843 224.266 21.3394 222.311 22.64 219.933L27.1838 211.625Z" fill="#01502E" fill-opacity="0.1"/>
<path d="M27.1838 42.7896L31.7277 51.0976C33.0282 53.4756 34.9834 55.4308 37.3614 56.7313L45.6694 61.2752L37.3614 65.819C34.9834 67.1195 33.0282 69.0747 31.7277 71.4527L27.1838 79.7608L22.64 71.4527C21.3394 69.0747 19.3843 67.1195 17.0063 65.819L8.69824 61.2752L17.0063 56.7313C19.3843 55.4308 21.3394 53.4756 22.64 51.0976L27.1838 42.7896Z" fill="#01502E" fill-opacity="0.1"/>
<path d="M109.753 127.823L114.297 136.131C115.598 138.509 117.553 140.464 119.931 141.765L128.239 146.309L119.931 150.853C117.553 152.153 115.598 154.108 114.297 156.486L109.753 164.794L105.209 156.486C103.909 154.108 101.954 152.153 99.5757 150.853L91.2676 146.309L99.5757 141.765C101.954 140.464 103.909 138.509 105.209 136.131L109.753 127.823Z" fill="#01502E" fill-opacity="0.1"/>
<path d="M27.8001 0.888794L32.3439 9.19687C33.6444 11.5748 35.5996 13.53 37.9776 14.8306L46.2857 19.3744L37.9776 23.9182C35.5996 25.2188 33.6444 27.174 32.3439 29.5519L27.8001 37.86L23.2562 29.5519C21.9557 27.174 20.0005 25.2188 17.6225 23.9182L9.31445 19.3744L17.6225 14.8306C20.0005 13.53 21.9557 11.5748 23.2562 9.19687L27.8001 0.888794Z" fill="#01502E" fill-opacity="0.1"/>
<path d="M110.368 85.9226L114.912 94.2307C116.213 96.6087 118.168 98.5638 120.546 99.8644L128.854 104.408L120.546 108.952C118.168 110.253 116.213 112.208 114.912 114.586L110.368 122.894L105.825 114.586C104.524 112.208 102.569 110.253 100.191 108.952L91.8828 104.408L100.191 99.8644C102.569 98.5638 104.524 96.6087 105.825 94.2307L110.368 85.9226Z" fill="#01502E" fill-opacity="0.1"/>
<path d="M192.938 2.12109L197.482 10.4292C198.782 12.8071 200.737 14.7623 203.115 16.0629L211.423 20.6067L203.115 25.1505C200.737 26.4511 198.782 28.4062 197.482 30.7842L192.938 39.0923L188.394 30.7842C187.093 28.4063 185.138 26.4511 182.76 25.1505L174.452 20.6067L182.76 16.0629C185.138 14.7623 187.093 12.8071 188.394 10.4292L192.938 2.12109Z" fill="#01502E" fill-opacity="0.1"/>
<path d="M27.1838 169.724L31.7277 178.032C33.0282 180.41 34.9834 182.365 37.3614 183.666L45.6694 188.209L37.3614 192.753C34.9834 194.054 33.0282 196.009 31.7277 198.387L27.1838 206.695L22.64 198.387C21.3394 196.009 19.3843 194.054 17.0063 192.753L8.69824 188.209L17.0063 183.666C19.3843 182.365 21.3394 180.41 22.64 178.032L27.1838 169.724Z" fill="#01502E" fill-opacity="0.1"/>
<path d="M152.27 44.0219L156.814 52.3299C158.114 54.7079 160.069 56.6631 162.447 57.9636L170.755 62.5075L162.447 67.0513C160.069 68.3518 158.114 70.307 156.814 72.685L152.27 80.9931L147.726 72.685C146.425 70.307 144.47 68.3518 142.092 67.0513L133.784 62.5075L142.092 57.9636C144.47 56.6631 146.425 54.7079 147.726 52.3299L152.27 44.0219Z" fill="#01502E" fill-opacity="0.1"/>
<path d="M-13.4851 211.625L-8.94126 219.933C-7.64071 222.311 -5.68555 224.266 -3.30758 225.566L5.0005 230.11L-3.30758 234.654C-5.68554 235.955 -7.64071 237.91 -8.94126 240.288L-13.4851 248.596L-18.0289 240.288C-19.3295 237.91 -21.2847 235.955 -23.6626 234.654L-31.9707 230.11L-23.6626 225.566C-21.2847 224.266 -19.3295 222.311 -18.0289 219.933L-13.4851 211.625Z" fill="#01502E" fill-opacity="0.1"/>
<path d="M-13.4851 42.7896L-8.94126 51.0976C-7.64071 53.4756 -5.68555 55.4308 -3.30758 56.7313L5.0005 61.2752L-3.30758 65.819C-5.68554 67.1195 -7.64071 69.0747 -8.94126 71.4527L-13.4851 79.7608L-18.0289 71.4527C-19.3295 69.0747 -21.2847 67.1195 -23.6626 65.819L-31.9707 61.2752L-23.6626 56.7313C-21.2847 55.4308 -19.3295 53.4756 -18.0289 51.0976L-13.4851 42.7896Z" fill="#01502E" fill-opacity="0.1"/>
<path d="M69.0842 127.823L73.6281 136.131C74.9286 138.509 76.8838 140.464 79.2618 141.765L87.5698 146.309L79.2618 150.853C76.8838 152.153 74.9286 154.108 73.6281 156.486L69.0842 164.794L64.5404 156.486C63.2398 154.108 61.2847 152.153 58.9067 150.853L50.5986 146.309L58.9067 141.765C61.2847 140.464 63.2398 138.509 64.5404 136.131L69.0842 127.823Z" fill="#01502E" fill-opacity="0.1"/>
<path d="M69.7004 42.7896L74.2443 51.0976C75.5448 53.4756 77.5 55.4308 79.878 56.7313L88.186 61.2752L79.878 65.819C77.5 67.1195 75.5448 69.0747 74.2443 71.4527L69.7004 79.7608L65.1566 71.4527C63.8561 69.0747 61.9009 67.1195 59.5229 65.819L51.2148 61.2752L59.5229 56.7313C61.9009 55.4308 63.8561 53.4756 65.1566 51.0976L69.7004 42.7896Z" fill="#01502E" fill-opacity="0.1"/>
<path d="M152.27 127.823L156.814 136.131C158.114 138.509 160.069 140.464 162.447 141.765L170.755 146.309L162.447 150.853C160.069 152.153 158.114 154.108 156.814 156.486L152.27 164.794L147.726 156.486C146.425 154.108 144.47 152.153 142.092 150.853L133.784 146.309L142.092 141.765C144.47 140.464 146.425 138.509 147.726 136.131L152.27 127.823Z" fill="#01502E" fill-opacity="0.1"/>
<path d="M-13.4851 295.426L-8.94126 303.734C-7.64071 306.112 -5.68555 308.067 -3.30758 309.368L5.0005 313.912L-3.30758 318.455C-5.68554 319.756 -7.64071 321.711 -8.94126 324.089L-13.4851 332.397L-18.0289 324.089C-19.3295 321.711 -21.2847 319.756 -23.6626 318.455L-31.9707 313.912L-23.6626 309.368C-21.2847 308.067 -19.3295 306.112 -18.0289 303.734L-13.4851 295.426Z" fill="#01502E" fill-opacity="0.1"/>
<path d="M234.839 44.0219L239.383 52.3299C240.684 54.7079 242.639 56.6631 245.017 57.9636L253.325 62.5075L245.017 67.0513C242.639 68.3518 240.684 70.307 239.383 72.685L234.839 80.9931L230.295 72.685C228.995 70.307 227.04 68.3518 224.662 67.0513L216.354 62.5075L224.662 57.9636C227.04 56.6631 228.995 54.7079 230.295 52.3299L234.839 44.0219Z" fill="#01502E" fill-opacity="0.1"/>
<path d="M-13.4851 126.591L-8.94126 134.899C-7.64071 137.277 -5.68555 139.232 -3.30758 140.533L5.0005 145.076L-3.30758 149.62C-5.68554 150.921 -7.64071 152.876 -8.94126 155.254L-13.4851 163.562L-18.0289 155.254C-19.3295 152.876 -21.2847 150.921 -23.6626 149.62L-31.9707 145.076L-23.6626 140.533C-21.2847 139.232 -19.3295 137.277 -18.0289 134.899L-13.4851 126.591Z" fill="#01502E" fill-opacity="0.1"/>
<path d="M69.0842 211.625L73.6281 219.933C74.9286 222.311 76.8838 224.266 79.2618 225.566L87.5698 230.11L79.2618 234.654C76.8838 235.955 74.9286 237.91 73.6281 240.288L69.0842 248.596L64.5404 240.288C63.2398 237.91 61.2847 235.955 58.9067 234.654L50.5986 230.11L58.9067 225.566C61.2847 224.266 63.2398 222.311 64.5404 219.933L69.0842 211.625Z" fill="#01502E" fill-opacity="0.1"/>
<path d="M111.601 0.888794L116.145 9.19687C117.445 11.5748 119.4 13.53 121.778 14.8306L130.086 19.3744L121.778 23.9182C119.4 25.2188 117.445 27.174 116.145 29.5519L111.601 37.86L107.057 29.5519C105.756 27.174 103.801 25.2188 101.423 23.9182L93.1152 19.3744L101.423 14.8306C103.801 13.53 105.756 11.5748 107.057 9.19687L111.601 0.888794Z" fill="#01502E" fill-opacity="0.1"/>
<path d="M194.17 85.9226L198.714 94.2307C200.015 96.6087 201.97 98.5638 204.348 99.8644L212.656 104.408L204.348 108.952C201.97 110.253 200.015 112.208 198.714 114.586L194.17 122.894L189.626 114.586C188.326 112.208 186.371 110.253 183.993 108.952L175.685 104.408L183.993 99.8644C186.371 98.5638 188.326 96.6087 189.626 94.2307L194.17 85.9226Z" fill="#01502E" fill-opacity="0.1"/>
<path d="M28.4163 253.525L32.9601 261.833C34.2607 264.211 36.2158 266.167 38.5938 267.467L46.9019 272.011L38.5938 276.555C36.2158 277.855 34.2607 279.811 32.9601 282.189L28.4163 290.497L23.8724 282.189C22.5719 279.811 20.6167 277.855 18.2387 276.555L9.93066 272.011L18.2387 267.467C20.6167 266.167 22.5719 264.211 23.8724 261.833L28.4163 253.525Z" fill="#01502E" fill-opacity="0.1"/>
<path d="M276.74 2.12109L281.283 10.4292C282.584 12.8071 284.539 14.7623 286.917 16.0629L295.225 20.6067L286.917 25.1505C284.539 26.4511 282.584 28.4062 281.283 30.7842L276.74 39.0923L272.196 30.7842C270.895 28.4063 268.94 26.4511 266.562 25.1505L258.254 20.6067L266.562 16.0629C268.94 14.7623 270.895 12.8071 272.196 10.4292L276.74 2.12109Z" fill="#01502E" fill-opacity="0.1"/>
<path d="M28.4163 84.6902L32.9601 92.9983C34.2607 95.3762 36.2158 97.3314 38.5938 98.6319L46.9019 103.176L38.5938 107.72C36.2158 109.02 34.2607 110.975 32.9601 113.353L28.4163 121.661L23.8724 113.353C22.5719 110.975 20.6167 109.02 18.2387 107.72L9.93066 103.176L18.2387 98.6319C20.6167 97.3314 22.5719 95.3762 23.8724 92.9983L28.4163 84.6902Z" fill="#01502E" fill-opacity="0.1"/>
<path d="M110.986 169.724L115.529 178.032C116.83 180.41 118.785 182.365 121.163 183.666L129.471 188.209L121.163 192.753C118.785 194.054 116.83 196.009 115.529 198.387L110.986 206.695L106.442 198.387C105.141 196.009 103.186 194.054 100.808 192.753L92.5 188.209L100.808 183.666C103.186 182.365 105.141 180.41 106.442 178.032L110.986 169.724Z" fill="#01502E" fill-opacity="0.1"/>
<path d="M47.5178 -20.0615L52.0617 -11.7534C53.3622 -9.37548 55.3174 -7.42032 57.6953 -6.11976L66.0034 -1.57592L57.6953 2.96792C55.3174 4.26847 53.3622 6.22363 52.0617 8.6016L47.5178 16.9097L42.974 8.6016C41.6734 6.22363 39.7183 4.26847 37.3403 2.96792L29.0322 -1.57592L37.3403 -6.11976C39.7183 -7.42032 41.6734 -9.37548 42.974 -11.7534L47.5178 -20.0615Z" fill="#01502E" fill-opacity="0.1"/>
<path d="M130.087 64.9722L134.631 73.2802C135.932 75.6582 137.887 77.6134 140.265 78.9139L148.573 83.4578L140.265 88.0016C137.887 89.3022 135.932 91.2573 134.631 93.6353L130.087 101.943L125.543 93.6353C124.243 91.2573 122.288 89.3022 119.91 88.0016L111.602 83.4578L119.91 78.9139C122.288 77.6134 124.243 75.6582 125.543 73.2802L130.087 64.9722Z" fill="#01502E" fill-opacity="0.1"/>
<path d="M212.656 -18.8292L217.199 -10.5211C218.5 -8.14318 220.455 -6.18802 222.833 -4.88746L231.141 -0.343622L222.833 4.20022C220.455 5.50077 218.5 7.45593 217.199 9.8339L212.656 18.142L208.112 9.8339C206.811 7.45593 204.856 5.50077 202.478 4.20022L194.17 -0.343622L202.478 -4.88746C204.856 -6.18802 206.811 -8.14318 208.112 -10.5211L212.656 -18.8292Z" fill="#01502E" fill-opacity="0.1"/>
<path d="M46.9016 148.773L51.4455 157.082C52.746 159.459 54.7012 161.415 57.0791 162.715L65.3872 167.259L57.0791 171.803C54.7012 173.103 52.746 175.059 51.4455 177.437L46.9016 185.745L42.3578 177.437C41.0572 175.059 39.1021 173.103 36.7241 171.803L28.416 167.259L36.7241 162.715C39.1021 161.415 41.0572 159.459 42.3578 157.082L46.9016 148.773Z" fill="#01502E" fill-opacity="0.1"/>
<path d="M171.988 23.0715L176.531 31.3796C177.832 33.7576 179.787 35.7127 182.165 37.0133L190.473 41.5571L182.165 46.101C179.787 47.4015 177.832 49.3567 176.531 51.7347L171.988 60.0427L167.444 51.7347C166.143 49.3567 164.188 47.4015 161.81 46.101L153.502 41.5571L161.81 37.0133C164.188 35.7127 166.143 33.7576 167.444 31.3796L171.988 23.0715Z" fill="#01502E" fill-opacity="0.1"/>
<path d="M6.23365 190.674L10.7775 198.982C12.078 201.36 14.0332 203.316 16.4112 204.616L24.7192 209.16L16.4112 213.704C14.0332 215.004 12.078 216.959 10.7775 219.337L6.23365 227.646L1.68981 219.337C0.389255 216.959 -1.56591 215.004 -3.94387 213.704L-12.252 209.16L-3.94387 204.616C-1.56591 203.316 0.389255 201.36 1.68981 198.982L6.23365 190.674Z" fill="#01502E" fill-opacity="0.1"/>
<path d="M6.23365 21.8391L10.7775 30.1472C12.078 32.5252 14.0332 34.4803 16.4112 35.7809L24.7192 40.3247L16.4112 44.8686C14.0332 46.1691 12.078 48.1243 10.7775 50.5022L6.23365 58.8103L1.68981 50.5022C0.389255 48.1243 -1.56591 46.1691 -3.94387 44.8686L-12.252 40.3247L-3.94387 35.7809C-1.56591 34.4803 0.389255 32.5252 1.68981 30.1472L6.23365 21.8391Z" fill="#01502E" fill-opacity="0.1"/>
<path d="M88.802 106.873L93.3458 115.181C94.6464 117.559 96.6016 119.514 98.9795 120.815L107.288 125.358L98.9795 129.902C96.6016 131.203 94.6464 133.158 93.3458 135.536L88.802 143.844L84.2582 135.536C82.9576 133.158 81.0025 131.203 78.6245 129.902L70.3164 125.358L78.6245 120.815C81.0024 119.514 82.9576 117.559 84.2582 115.181L88.802 106.873Z" fill="#01502E" fill-opacity="0.1"/>
<path d="M89.4182 21.8391L93.9621 30.1472C95.2626 32.5252 97.2178 34.4803 99.5957 35.7809L107.904 40.3247L99.5957 44.8686C97.2178 46.1691 95.2626 48.1243 93.9621 50.5022L89.4182 58.8103L84.8744 50.5022C83.5738 48.1243 81.6187 46.1691 79.2407 44.8686L70.9326 40.3247L79.2407 35.7809C81.6187 34.4803 83.5738 32.5252 84.8744 30.1472L89.4182 21.8391Z" fill="#01502E" fill-opacity="0.1"/>
<path d="M171.988 106.873L176.531 115.181C177.832 117.559 179.787 119.514 182.165 120.815L190.473 125.358L182.165 129.902C179.787 131.203 177.832 133.158 176.531 135.536L171.988 143.844L167.444 135.536C166.143 133.158 164.188 131.203 161.81 129.902L153.502 125.358L161.81 120.815C164.188 119.514 166.143 117.559 167.444 115.181L171.988 106.873Z" fill="#01502E" fill-opacity="0.1"/>
<path d="M6.23365 274.476L10.7775 282.784C12.078 285.162 14.0332 287.117 16.4112 288.417L24.7192 292.961L16.4112 297.505C14.0332 298.806 12.078 300.761 10.7775 303.139L6.23365 311.447L1.68981 303.139C0.389255 300.761 -1.56591 298.806 -3.94387 297.505L-12.252 292.961L-3.94387 288.417C-1.56591 287.117 0.389255 285.162 1.68981 282.784L6.23365 274.476Z" fill="#01502E" fill-opacity="0.1"/>
<path d="M254.557 23.0715L259.101 31.3796C260.401 33.7576 262.356 35.7127 264.734 37.0133L273.042 41.5571L264.734 46.101C262.356 47.4015 260.401 49.3567 259.101 51.7347L254.557 60.0427L250.013 51.7347C248.712 49.3567 246.757 47.4015 244.379 46.101L236.071 41.5571L244.379 37.0133C246.757 35.7127 248.712 33.7576 250.013 31.3796L254.557 23.0715Z" fill="#01502E" fill-opacity="0.1"/>
<path d="M6.23365 105.641L10.7775 113.949C12.078 116.327 14.0332 118.282 16.4112 119.582L24.7192 124.126L16.4112 128.67C14.0332 129.97 12.078 131.926 10.7775 134.304L6.23365 142.612L1.68981 134.304C0.389255 131.926 -1.56591 129.97 -3.94387 128.67L-12.252 124.126L-3.94387 119.582C-1.56591 118.282 0.389255 116.327 1.68981 113.949L6.23365 105.641Z" fill="#01502E" fill-opacity="0.1"/>
<path d="M88.802 190.674L93.3458 198.982C94.6464 201.36 96.6016 203.316 98.9795 204.616L107.288 209.16L98.9795 213.704C96.6016 215.004 94.6464 216.959 93.3458 219.337L88.802 227.646L84.2582 219.337C82.9576 216.959 81.0025 215.004 78.6245 213.704L70.3164 209.16L78.6245 204.616C81.0024 203.316 82.9576 201.36 84.2582 198.982L88.802 190.674Z" fill="#01502E" fill-opacity="0.1"/>
<path d="M131.32 -20.0615L135.863 -11.7534C137.164 -9.37548 139.119 -7.42032 141.497 -6.11976L149.805 -1.57592L141.497 2.96792C139.119 4.26847 137.164 6.22363 135.863 8.6016L131.32 16.9097L126.776 8.6016C125.475 6.22363 123.52 4.26847 121.142 2.96792L112.834 -1.57592L121.142 -6.11976C123.52 -7.42032 125.475 -9.37548 126.776 -11.7534L131.32 -20.0615Z" fill="#01502E" fill-opacity="0.1"/>
<path d="M213.888 64.9722L218.432 73.2802C219.732 75.6582 221.688 77.6134 224.065 78.9139L232.374 83.4578L224.065 88.0016C221.688 89.3022 219.732 91.2573 218.432 93.6353L213.888 101.943L209.344 93.6353C208.044 91.2573 206.088 89.3022 203.71 88.0016L195.402 83.4578L203.71 78.9139C206.088 77.6134 208.044 75.6582 209.344 73.2802L213.888 64.9722Z" fill="#01502E" fill-opacity="0.1"/>
<path d="M48.134 232.575L52.6779 240.883C53.9784 243.261 55.9336 245.216 58.3116 246.517L66.6196 251.061L58.3116 255.604C55.9336 256.905 53.9784 258.86 52.6779 261.238L48.134 269.546L43.5902 261.238C42.2896 258.86 40.3345 256.905 37.9565 255.604L29.6484 251.061L37.9565 246.517C40.3345 245.216 42.2896 243.261 43.5902 240.883L48.134 232.575Z" fill="#01502E" fill-opacity="0.1"/>
<path d="M296.457 -18.8292L301.001 -10.5211C302.302 -8.14318 304.257 -6.18802 306.635 -4.88746L314.943 -0.343622L306.635 4.20022C304.257 5.50077 302.302 7.45593 301.001 9.8339L296.457 18.142L291.913 9.8339C290.613 7.45593 288.658 5.50077 286.28 4.20022L277.972 -0.343622L286.28 -4.88746C288.658 -6.18802 290.613 -8.14318 291.913 -10.5211L296.457 -18.8292Z" fill="#01502E" fill-opacity="0.1"/>
<path d="M48.134 63.7397L52.6779 72.0478C53.9784 74.4258 55.9336 76.381 58.3116 77.6815L66.6196 82.2253L58.3116 86.7692C55.9336 88.0697 53.9784 90.0249 52.6779 92.4029L48.134 100.711L43.5902 92.4029C42.2896 90.0249 40.3345 88.0697 37.9565 86.7692L29.6484 82.2253L37.9565 77.6815C40.3345 76.381 42.2896 74.4258 43.5902 72.0478L48.134 63.7397Z" fill="#01502E" fill-opacity="0.1"/>
<path d="M130.703 148.773L135.247 157.082C136.548 159.459 138.503 161.415 140.881 162.715L149.189 167.259L140.881 171.803C138.503 173.103 136.548 175.059 135.247 177.437L130.703 185.745L126.16 177.437C124.859 175.059 122.904 173.103 120.526 171.803L112.218 167.259L120.526 162.715C122.904 161.415 124.859 159.459 126.16 157.082L130.703 148.773Z" fill="#01502E" fill-opacity="0.1"/>
<path d="M1165.38 311.255L1169.92 319.563C1171.22 321.941 1173.18 323.896 1175.56 325.197L1183.86 329.741L1175.56 334.285C1173.18 335.585 1171.22 337.54 1169.92 339.918L1165.38 348.226L1160.83 339.918C1159.53 337.54 1157.58 335.585 1155.2 334.285L1146.89 329.741L1155.2 325.197C1157.58 323.896 1159.53 321.941 1160.83 319.563L1165.38 311.255Z" fill="#01502E" fill-opacity="0.1"/>
<path d="M1247.95 227.454L1252.49 235.762C1253.79 238.14 1255.75 240.095 1258.12 241.396L1266.43 245.939L1258.12 250.483C1255.75 251.784 1253.79 253.739 1252.49 256.117L1247.95 264.425L1243.4 256.117C1242.1 253.739 1240.15 251.784 1237.77 250.483L1229.46 245.939L1237.77 241.396C1240.15 240.095 1242.1 238.14 1243.4 235.762L1247.95 227.454Z" fill="#01502E" fill-opacity="0.1"/>
<path d="M1082.19 395.057L1086.74 403.365C1088.04 405.743 1089.99 407.698 1092.37 408.998L1100.68 413.542L1092.37 418.086C1089.99 419.387 1088.04 421.342 1086.74 423.72L1082.19 432.028L1077.65 423.72C1076.35 421.342 1074.39 419.387 1072.02 418.086L1063.71 413.542L1072.02 408.998C1074.39 407.698 1076.35 405.743 1077.65 403.365L1082.19 395.057Z" fill="#01502E" fill-opacity="0.1"/>
<path d="M1249.18 392.592L1253.72 400.9C1255.02 403.278 1256.98 405.233 1259.36 406.534L1267.66 411.077L1259.36 415.621C1256.98 416.922 1255.02 418.877 1253.72 421.255L1249.18 429.563L1244.64 421.255C1243.33 418.877 1241.38 416.922 1239 415.621L1230.69 411.077L1239 406.534C1241.38 405.233 1243.33 403.278 1244.64 400.9L1249.18 392.592Z" fill="#01502E" fill-opacity="0.1"/>
<path d="M1207.28 269.354L1211.82 277.663C1213.12 280.041 1215.08 281.996 1217.46 283.296L1225.76 287.84L1217.46 292.384C1215.08 293.684 1213.12 295.64 1211.82 298.018L1207.28 306.326L1202.73 298.018C1201.43 295.64 1199.48 293.684 1197.1 292.384L1188.79 287.84L1197.1 283.296C1199.48 281.996 1201.43 280.041 1202.73 277.663L1207.28 269.354Z" fill="#01502E" fill-opacity="0.1"/>
<path d="M1041.52 436.957L1046.07 445.265C1047.37 447.643 1049.32 449.598 1051.7 450.899L1060.01 455.443L1051.7 459.987C1049.32 461.287 1047.37 463.242 1046.07 465.62L1041.52 473.928L1036.98 465.62C1035.68 463.242 1033.73 461.287 1031.35 459.987L1023.04 455.443L1031.35 450.899C1033.73 449.598 1035.68 447.643 1036.98 445.265L1041.52 436.957Z" fill="#01502E" fill-opacity="0.1"/>
<path d="M1289.85 185.553L1294.39 193.861C1295.69 196.239 1297.65 198.194 1300.03 199.495L1308.33 204.039L1300.03 208.583C1297.65 209.883 1295.69 211.838 1294.39 214.216L1289.85 222.524L1285.3 214.216C1284 211.838 1282.05 209.883 1279.67 208.583L1271.36 204.039L1279.67 199.495C1282.05 198.194 1284 196.239 1285.3 193.861L1289.85 185.553Z" fill="#01502E" fill-opacity="0.1"/>
<path d="M1124.09 353.156L1128.64 361.464C1129.94 363.842 1131.89 365.797 1134.27 367.098L1142.58 371.642L1134.27 376.185C1131.89 377.486 1129.94 379.441 1128.64 381.819L1124.09 390.127L1119.55 381.819C1118.25 379.441 1116.29 377.486 1113.92 376.185L1105.61 371.642L1113.92 367.098C1116.29 365.797 1118.25 363.842 1119.55 361.464L1124.09 353.156Z" fill="#01502E" fill-opacity="0.1"/>
<path d="M1291.08 350.691L1295.62 358.999C1296.92 361.377 1298.88 363.332 1301.26 364.633L1309.57 369.177L1301.26 373.721C1298.88 375.021 1296.92 376.976 1295.62 379.354L1291.08 387.662L1286.54 379.354C1285.24 376.976 1283.28 375.021 1280.9 373.721L1272.59 369.177L1280.9 364.633C1283.28 363.332 1285.24 361.377 1286.54 358.999L1291.08 350.691Z" fill="#01502E" fill-opacity="0.1"/>
<path d="M1207.89 434.493L1212.44 442.801C1213.74 445.179 1215.69 447.134 1218.07 448.434L1226.38 452.978L1218.07 457.522C1215.69 458.823 1213.74 460.778 1212.44 463.156L1207.89 471.464L1203.35 463.156C1202.05 460.778 1200.1 458.823 1197.72 457.522L1189.41 452.978L1197.72 448.434C1200.1 447.134 1202.05 445.179 1203.35 442.801L1207.89 434.493Z" fill="#01502E" fill-opacity="0.1"/>
<path d="M1207.28 353.156L1211.82 361.464C1213.12 363.842 1215.08 365.797 1217.46 367.098L1225.76 371.642L1217.46 376.185C1215.08 377.486 1213.12 379.441 1211.82 381.819L1207.28 390.127L1202.73 381.819C1201.43 379.441 1199.48 377.486 1197.1 376.185L1188.79 371.642L1197.1 367.098C1199.48 365.797 1201.43 363.842 1202.73 361.464L1207.28 353.156Z" fill="#01502E" fill-opacity="0.1"/>
<path d="M1289.85 269.354L1294.39 277.663C1295.69 280.041 1297.65 281.996 1300.03 283.296L1308.33 287.84L1300.03 292.384C1297.65 293.684 1295.69 295.64 1294.39 298.018L1289.85 306.326L1285.3 298.018C1284 295.64 1282.05 293.684 1279.67 292.384L1271.36 287.84L1279.67 283.296C1282.05 281.996 1284 280.041 1285.3 277.663L1289.85 269.354Z" fill="#01502E" fill-opacity="0.1"/>
<path d="M1124.09 436.957L1128.64 445.265C1129.94 447.643 1131.89 449.598 1134.27 450.899L1142.58 455.443L1134.27 459.987C1131.89 461.287 1129.94 463.242 1128.64 465.62L1124.09 473.928L1119.55 465.62C1118.25 463.242 1116.29 461.287 1113.92 459.987L1105.61 455.443L1113.92 450.899C1116.29 449.598 1118.25 447.643 1119.55 445.265L1124.09 436.957Z" fill="#01502E" fill-opacity="0.1"/>
<path d="M1291.08 434.493L1295.62 442.801C1296.92 445.179 1298.88 447.134 1301.26 448.434L1309.57 452.978L1301.26 457.522C1298.88 458.823 1296.92 460.778 1295.62 463.156L1291.08 471.464L1286.54 463.156C1285.24 460.778 1283.28 458.823 1280.9 457.522L1272.59 452.978L1280.9 448.434C1283.28 447.134 1285.24 445.179 1286.54 442.801L1291.08 434.493Z" fill="#01502E" fill-opacity="0.1"/>
<path d="M1249.18 311.255L1253.72 319.563C1255.02 321.941 1256.98 323.896 1259.36 325.197L1267.66 329.741L1259.36 334.285C1256.98 335.585 1255.02 337.54 1253.72 339.918L1249.18 348.226L1244.64 339.918C1243.33 337.54 1241.38 335.585 1239 334.285L1230.69 329.741L1239 325.197C1241.38 323.896 1243.33 321.941 1244.64 319.563L1249.18 311.255Z" fill="#01502E" fill-opacity="0.1"/>
<path d="M1165.99 395.057L1170.54 403.365C1171.84 405.743 1173.79 407.698 1176.17 408.998L1184.48 413.542L1176.17 418.086C1173.79 419.387 1171.84 421.342 1170.54 423.72L1165.99 432.028L1161.45 423.72C1160.15 421.342 1158.19 419.387 1155.82 418.086L1147.51 413.542L1155.82 408.998C1158.19 407.698 1160.15 405.743 1161.45 403.365L1165.99 395.057Z" fill="#01502E" fill-opacity="0.1"/>
<path d="M1185.1 290.305L1189.64 298.613C1190.94 300.991 1192.9 302.946 1195.27 304.247L1203.58 308.791L1195.27 313.334C1192.9 314.635 1190.94 316.59 1189.64 318.968L1185.1 327.276L1180.55 318.968C1179.25 316.59 1177.3 314.635 1174.92 313.334L1166.61 308.791L1174.92 304.247C1177.3 302.946 1179.25 300.991 1180.55 298.613L1185.1 290.305Z" fill="#01502E" fill-opacity="0.1"/>
<path d="M1019.34 457.908L1023.89 466.216C1025.19 468.594 1027.14 470.549 1029.52 471.849L1037.83 476.393L1029.52 480.937C1027.14 482.238 1025.19 484.193 1023.89 486.571L1019.34 494.879L1014.8 486.571C1013.5 484.193 1011.54 482.238 1009.16 480.937L1000.86 476.393L1009.16 471.849C1011.54 470.549 1013.5 468.594 1014.8 466.216L1019.34 457.908Z" fill="#01502E" fill-opacity="0.1"/>
<path d="M1267.67 206.503L1272.21 214.811C1273.51 217.189 1275.46 219.145 1277.84 220.445L1286.15 224.989L1277.84 229.533C1275.46 230.833 1273.51 232.789 1272.21 235.167L1267.67 243.475L1263.12 235.167C1261.82 232.789 1259.87 230.833 1257.49 229.533L1249.18 224.989L1257.49 220.445C1259.87 219.145 1261.82 217.189 1263.12 214.811L1267.67 206.503Z" fill="#01502E" fill-opacity="0.1"/>
<path d="M1101.91 374.106L1106.45 382.414C1107.75 384.792 1109.71 386.747 1112.09 388.048L1120.4 392.592L1112.09 397.136C1109.71 398.436 1107.75 400.391 1106.45 402.769L1101.91 411.077L1097.37 402.769C1096.07 400.391 1094.11 398.436 1091.73 397.136L1083.42 392.592L1091.73 388.048C1094.11 386.747 1096.07 384.792 1097.37 382.414L1101.91 374.106Z" fill="#01502E" fill-opacity="0.1"/>
<path d="M1268.9 371.642L1273.44 379.95C1274.74 382.328 1276.7 384.283 1279.08 385.583L1287.38 390.127L1279.08 394.671C1276.7 395.972 1274.74 397.927 1273.44 400.305L1268.9 408.613L1264.35 400.305C1263.05 397.927 1261.1 395.972 1258.72 394.671L1250.41 390.127L1258.72 385.583C1261.1 384.283 1263.05 382.328 1264.35 379.95L1268.9 371.642Z" fill="#01502E" fill-opacity="0.1"/>
<path d="M1185.71 455.443L1190.26 463.751C1191.56 466.129 1193.51 468.084 1195.89 469.385L1204.2 473.928L1195.89 478.472C1193.51 479.773 1191.56 481.728 1190.26 484.106L1185.71 492.414L1181.17 484.106C1179.87 481.728 1177.91 479.773 1175.53 478.472L1167.23 473.928L1175.53 469.385C1177.91 468.084 1179.87 466.129 1181.17 463.751L1185.71 455.443Z" fill="#01502E" fill-opacity="0.1"/>
<path d="M1227 248.404L1231.54 256.712C1232.84 259.09 1234.8 261.046 1237.17 262.346L1245.48 266.89L1237.17 271.434C1234.8 272.734 1232.84 274.689 1231.54 277.067L1227 285.375L1222.45 277.067C1221.15 274.689 1219.2 272.734 1216.82 271.434L1208.51 266.89L1216.82 262.346C1219.2 261.046 1221.15 259.09 1222.45 256.712L1227 248.404Z" fill="#01502E" fill-opacity="0.1"/>
<path d="M1061.24 416.007L1065.79 424.315C1067.09 426.693 1069.04 428.648 1071.42 429.949L1079.73 434.492L1071.42 439.036C1069.04 440.337 1067.09 442.292 1065.79 444.67L1061.24 452.978L1056.7 444.67C1055.4 442.292 1053.44 440.337 1051.06 439.036L1042.76 434.492L1051.06 429.949C1053.44 428.648 1055.4 426.693 1056.7 424.315L1061.24 416.007Z" fill="#01502E" fill-opacity="0.1"/>
<path d="M1309.57 164.603L1314.11 172.911C1315.41 175.289 1317.37 177.244 1319.74 178.545L1328.05 183.088L1319.74 187.632C1317.37 188.933 1315.41 190.888 1314.11 193.266L1309.57 201.574L1305.02 193.266C1303.72 190.888 1301.77 188.933 1299.39 187.632L1291.08 183.088L1299.39 178.545C1301.77 177.244 1303.72 175.289 1305.02 172.911L1309.57 164.603Z" fill="#01502E" fill-opacity="0.1"/>
<path d="M1143.81 332.206L1148.36 340.514C1149.66 342.892 1151.61 344.847 1153.99 346.147L1162.3 350.691L1153.99 355.235C1151.61 356.536 1149.66 358.491 1148.36 360.869L1143.81 369.177L1139.27 360.869C1137.97 358.491 1136.01 356.536 1133.63 355.235L1125.33 350.691L1133.63 346.147C1136.01 344.847 1137.97 342.892 1139.27 340.514L1143.81 332.206Z" fill="#01502E" fill-opacity="0.1"/>
<path d="M1310.8 329.741L1315.34 338.049C1316.64 340.427 1318.6 342.382 1320.98 343.682L1329.28 348.226L1320.98 352.77C1318.6 354.071 1316.64 356.026 1315.34 358.404L1310.8 366.712L1306.25 358.404C1304.95 356.026 1303 354.071 1300.62 352.77L1292.31 348.226L1300.62 343.682C1303 342.382 1304.95 340.427 1306.25 338.049L1310.8 329.741Z" fill="#01502E" fill-opacity="0.1"/>
<path d="M1227.61 413.542L1232.16 421.85C1233.46 424.228 1235.41 426.183 1237.79 427.484L1246.1 432.028L1237.79 436.572C1235.41 437.872 1233.46 439.827 1232.16 442.205L1227.61 450.513L1223.07 442.205C1221.77 439.827 1219.81 437.872 1217.44 436.572L1209.13 432.028L1217.44 427.484C1219.81 426.183 1221.77 424.228 1223.07 421.85L1227.61 413.542Z" fill="#01502E" fill-opacity="0.1"/>
<path d="M1227 332.206L1231.54 340.514C1232.84 342.892 1234.8 344.847 1237.17 346.147L1245.48 350.691L1237.17 355.235C1234.8 356.536 1232.84 358.491 1231.54 360.869L1227 369.177L1222.45 360.869C1221.15 358.491 1219.2 356.536 1216.82 355.235L1208.51 350.691L1216.82 346.147C1219.2 344.847 1221.15 342.892 1222.45 340.514L1227 332.206Z" fill="#01502E" fill-opacity="0.1"/>
<path d="M1309.57 248.404L1314.11 256.712C1315.41 259.09 1317.37 261.046 1319.74 262.346L1328.05 266.89L1319.74 271.434C1317.37 272.734 1315.41 274.689 1314.11 277.067L1309.57 285.375L1305.02 277.067C1303.72 274.689 1301.77 272.734 1299.39 271.434L1291.08 266.89L1299.39 262.346C1301.77 261.046 1303.72 259.09 1305.02 256.712L1309.57 248.404Z" fill="#01502E" fill-opacity="0.1"/>
<path d="M1143.81 416.007L1148.36 424.315C1149.66 426.693 1151.61 428.648 1153.99 429.949L1162.3 434.492L1153.99 439.036C1151.61 440.337 1149.66 442.292 1148.36 444.67L1143.81 452.978L1139.27 444.67C1137.97 442.292 1136.01 440.337 1133.63 439.036L1125.33 434.492L1133.63 429.949C1136.01 428.648 1137.97 426.693 1139.27 424.315L1143.81 416.007Z" fill="#01502E" fill-opacity="0.1"/>
<path d="M1315.07 421.998C1316.4 424.428 1318.4 426.425 1320.83 427.754L1328.64 432.028L1320.83 436.301C1318.4 437.63 1316.4 439.628 1315.07 442.058L1310.8 449.87L1306.52 442.058C1305.2 439.628 1303.2 437.63 1300.77 436.301L1292.95 432.028L1300.77 427.754C1303.2 426.425 1305.2 424.428 1306.52 421.998L1310.8 414.184L1315.07 421.998Z" fill="#01502E" fill-opacity="0.8" stroke="#FAFFFA" stroke-width="0.616187"/>
<path d="M1268.9 290.305L1273.44 298.613C1274.74 300.991 1276.7 302.946 1279.08 304.247L1287.38 308.791L1279.08 313.334C1276.7 314.635 1274.74 316.59 1273.44 318.968L1268.9 327.276L1264.35 318.968C1263.05 316.59 1261.1 314.635 1258.72 313.334L1250.41 308.791L1258.72 304.247C1261.1 302.946 1263.05 300.991 1264.35 298.613L1268.9 290.305Z" fill="#01502E" fill-opacity="0.1"/>
<path d="M1103.14 457.908L1107.69 466.216C1108.99 468.594 1110.94 470.549 1113.32 471.849L1121.63 476.393L1113.32 480.937C1110.94 482.238 1108.99 484.193 1107.69 486.571L1103.14 494.879L1098.6 486.571C1097.3 484.193 1095.34 482.238 1092.97 480.937L1084.66 476.393L1092.97 471.849C1095.34 470.549 1097.3 468.594 1098.6 466.216L1103.14 457.908Z" fill="#01502E" fill-opacity="0.1"/>
<path d="M1189.99 382.562C1191.31 384.992 1193.31 386.989 1195.74 388.318L1203.55 392.592L1195.74 396.865C1193.31 398.194 1191.31 400.192 1189.99 402.622L1185.71 410.434L1181.44 402.622C1180.11 400.192 1178.11 398.194 1175.68 396.865L1167.87 392.592L1175.68 388.318C1178.11 386.989 1180.11 384.992 1181.44 382.562L1185.71 374.748L1189.99 382.562Z" fill="#01502E" fill-opacity="0.8" stroke="#FAFFFA" stroke-width="0.616187"/>
<path d="M1269.51 455.443L1274.06 463.751C1275.36 466.129 1277.31 468.084 1279.69 469.385L1288 473.928L1279.69 478.472C1277.31 479.773 1275.36 481.728 1274.06 484.106L1269.51 492.414L1264.97 484.106C1263.67 481.728 1261.71 479.773 1259.34 478.472L1251.03 473.928L1259.34 469.385C1261.71 468.084 1263.67 466.129 1264.97 463.751L1269.51 455.443Z" fill="#01502E" fill-opacity="0.1"/>
<path d="M1186.33 332.206L1190.87 340.514C1192.17 342.892 1194.13 344.847 1196.51 346.147L1204.81 350.691L1196.51 355.235C1194.13 356.536 1192.17 358.491 1190.87 360.869L1186.33 369.177L1181.78 360.869C1180.48 358.491 1178.53 356.536 1176.15 355.235L1167.84 350.691L1176.15 346.147C1178.53 344.847 1180.48 342.892 1181.78 340.514L1186.33 332.206Z" fill="#01502E" fill-opacity="0.1"/>
<path d="M1268.9 248.404L1273.44 256.712C1274.74 259.09 1276.7 261.046 1279.08 262.346L1287.38 266.89L1279.08 271.434C1276.7 272.734 1274.74 274.689 1273.44 277.067L1268.9 285.375L1264.35 277.067C1263.05 274.689 1261.1 272.734 1258.72 271.434L1250.41 266.89L1258.72 262.346C1261.1 261.046 1263.05 259.09 1264.35 256.712L1268.9 248.404Z" fill="#01502E" fill-opacity="0.1"/>
<path d="M1103.14 416.007L1107.69 424.315C1108.99 426.693 1110.94 428.648 1113.32 429.949L1121.63 434.492L1113.32 439.036C1110.94 440.337 1108.99 442.292 1107.69 444.67L1103.14 452.978L1098.6 444.67C1097.3 442.292 1095.34 440.337 1092.97 439.036L1084.66 434.492L1092.97 429.949C1095.34 428.648 1097.3 426.693 1098.6 424.315L1103.14 416.007Z" fill="#01502E" fill-opacity="0.1"/>
<path d="M1270.13 413.542L1274.67 421.85C1275.97 424.228 1277.93 426.183 1280.31 427.484L1288.61 432.028L1280.31 436.572C1277.93 437.872 1275.97 439.827 1274.67 442.205L1270.13 450.513L1265.59 442.205C1264.28 439.827 1262.33 437.872 1259.95 436.572L1251.64 432.028L1259.95 427.484C1262.33 426.183 1264.28 424.228 1265.59 421.85L1270.13 413.542Z" fill="#01502E" fill-opacity="0.1"/>
<path d="M1228.23 290.305L1232.77 298.613C1234.07 300.991 1236.03 302.946 1238.41 304.247L1246.71 308.791L1238.41 313.334C1236.03 314.635 1234.07 316.59 1232.77 318.968L1228.23 327.276L1223.68 318.968C1222.38 316.59 1220.43 314.635 1218.05 313.334L1209.74 308.791L1218.05 304.247C1220.43 302.946 1222.38 300.991 1223.68 298.613L1228.23 290.305Z" fill="#01502E" fill-opacity="0.1"/>
<path d="M1062.47 457.908L1067.02 466.216C1068.32 468.594 1070.27 470.549 1072.65 471.849L1080.96 476.393L1072.65 480.937C1070.27 482.238 1068.32 484.193 1067.02 486.571L1062.47 494.879L1057.93 486.571C1056.63 484.193 1054.68 482.238 1052.3 480.937L1043.99 476.393L1052.3 471.849C1054.68 470.549 1056.63 468.594 1057.93 466.216L1062.47 457.908Z" fill="#01502E" fill-opacity="0.1"/>
<path d="M1310.8 206.503L1315.34 214.811C1316.64 217.189 1318.6 219.145 1320.98 220.445L1329.28 224.989L1320.98 229.533C1318.6 230.833 1316.64 232.789 1315.34 235.167L1310.8 243.475L1306.25 235.167C1304.95 232.789 1303 230.833 1300.62 229.533L1292.31 224.989L1300.62 220.445C1303 219.145 1304.95 217.189 1306.25 214.811L1310.8 206.503Z" fill="#01502E" fill-opacity="0.1"/>
<path d="M1145.04 374.106L1149.59 382.414C1150.89 384.792 1152.84 386.747 1155.22 388.048L1163.53 392.592L1155.22 397.136C1152.84 398.436 1150.89 400.391 1149.59 402.769L1145.04 411.077L1140.5 402.769C1139.2 400.391 1137.24 398.436 1134.87 397.136L1126.56 392.592L1134.87 388.048C1137.24 386.747 1139.2 384.792 1140.5 382.414L1145.04 374.106Z" fill="#01502E" fill-opacity="0.1"/>
<path d="M1312.03 371.642L1316.57 379.95C1317.87 382.328 1319.83 384.283 1322.21 385.583L1330.52 390.127L1322.21 394.671C1319.83 395.972 1317.87 397.927 1316.57 400.305L1312.03 408.613L1307.49 400.305C1306.19 397.927 1304.23 395.972 1301.85 394.671L1293.54 390.127L1301.85 385.583C1304.23 384.283 1306.19 382.328 1307.49 379.95L1312.03 371.642Z" fill="#01502E" fill-opacity="0.1"/>
<path d="M1228.84 455.443L1233.39 463.751C1234.69 466.129 1236.64 468.084 1239.02 469.385L1247.33 473.928L1239.02 478.472C1236.64 479.773 1234.69 481.728 1233.39 484.106L1228.84 492.414L1224.3 484.106C1223 481.728 1221.05 479.773 1218.67 478.472L1210.36 473.928L1218.67 469.385C1221.05 468.084 1223 466.129 1224.3 463.751L1228.84 455.443Z" fill="#01502E" fill-opacity="0.1"/>
<path d="M1228.23 374.106L1232.77 382.414C1234.07 384.792 1236.03 386.747 1238.41 388.048L1246.71 392.592L1238.41 397.136C1236.03 398.436 1234.07 400.391 1232.77 402.769L1228.23 411.077L1223.68 402.769C1222.38 400.391 1220.43 398.436 1218.05 397.136L1209.74 392.592L1218.05 388.048C1220.43 386.747 1222.38 384.792 1223.68 382.414L1228.23 374.106Z" fill="#01502E" fill-opacity="0.1"/>
<path d="M1310.8 290.305L1315.34 298.613C1316.64 300.991 1318.6 302.946 1320.98 304.247L1329.28 308.791L1320.98 313.334C1318.6 314.635 1316.64 316.59 1315.34 318.968L1310.8 327.276L1306.25 318.968C1304.95 316.59 1303 314.635 1300.62 313.334L1292.31 308.791L1300.62 304.247C1303 302.946 1304.95 300.991 1306.25 298.613L1310.8 290.305Z" fill="#01502E" fill-opacity="0.1"/>
<path d="M1145.04 457.908L1149.59 466.216C1150.89 468.594 1152.84 470.549 1155.22 471.849L1163.53 476.393L1155.22 480.937C1152.84 482.238 1150.89 484.193 1149.59 486.571L1145.04 494.879L1140.5 486.571C1139.2 484.193 1137.24 482.238 1134.87 480.937L1126.56 476.393L1134.87 471.849C1137.24 470.549 1139.2 468.594 1140.5 466.216L1145.04 457.908Z" fill="#01502E" fill-opacity="0.1"/>
<path d="M1312.03 455.443L1316.57 463.751C1317.87 466.129 1319.83 468.084 1322.21 469.385L1330.52 473.928L1322.21 478.472C1319.83 479.773 1317.87 481.728 1316.57 484.106L1312.03 492.414L1307.49 484.106C1306.19 481.728 1304.23 479.773 1301.85 478.472L1293.54 473.928L1301.85 469.385C1304.23 468.084 1306.19 466.129 1307.49 463.751L1312.03 455.443Z" fill="#01502E" fill-opacity="0.1"/>
<path d="M1270.13 332.206L1274.67 340.514C1275.97 342.892 1277.93 344.847 1280.31 346.147L1288.61 350.691L1280.31 355.235C1277.93 356.536 1275.97 358.491 1274.67 360.869L1270.13 369.177L1265.59 360.869C1264.28 358.491 1262.33 356.536 1259.95 355.235L1251.64 350.691L1259.95 346.147C1262.33 344.847 1264.28 342.892 1265.59 340.514L1270.13 332.206Z" fill="#01502E" fill-opacity="0.1"/>
<path d="M1186.94 416.007L1191.49 424.315C1192.79 426.693 1194.74 428.648 1197.12 429.949L1205.43 434.492L1197.12 439.036C1194.74 440.337 1192.79 442.292 1191.49 444.67L1186.94 452.978L1182.4 444.67C1181.1 442.292 1179.15 440.337 1176.77 439.036L1168.46 434.492L1176.77 429.949C1179.15 428.648 1181.1 426.693 1182.4 424.315L1186.94 416.007Z" fill="#01502E" fill-opacity="0.1"/>
<path d="M1206.05 311.255L1210.59 319.563C1211.89 321.941 1213.85 323.896 1216.22 325.197L1224.53 329.741L1216.22 334.285C1213.85 335.585 1211.89 337.54 1210.59 339.918L1206.05 348.226L1201.5 339.918C1200.2 337.54 1198.25 335.585 1195.87 334.285L1187.56 329.741L1195.87 325.197C1198.25 323.896 1200.2 321.941 1201.5 319.563L1206.05 311.255Z" fill="#01502E" fill-opacity="0.1"/>
<path d="M1288.62 227.454L1293.16 235.762C1294.46 238.14 1296.42 240.095 1298.79 241.396L1307.1 245.939L1298.79 250.483C1296.42 251.784 1294.46 253.739 1293.16 256.117L1288.62 264.425L1284.07 256.117C1282.77 253.739 1280.82 251.784 1278.44 250.483L1270.13 245.939L1278.44 241.396C1280.82 240.095 1282.77 238.14 1284.07 235.762L1288.62 227.454Z" fill="#01502E" fill-opacity="0.1"/>
<path d="M1122.86 395.057L1127.4 403.365C1128.7 405.743 1130.66 407.698 1133.04 408.998L1141.35 413.542L1133.04 418.086C1130.66 419.387 1128.7 421.342 1127.4 423.72L1122.86 432.028L1118.32 423.72C1117.02 421.342 1115.06 419.387 1112.68 418.086L1104.38 413.542L1112.68 408.998C1115.06 407.698 1117.02 405.743 1118.32 403.365L1122.86 395.057Z" fill="#01502E" fill-opacity="0.1"/>
<path d="M1289.85 392.592L1294.39 400.9C1295.69 403.278 1297.65 405.233 1300.03 406.534L1308.33 411.077L1300.03 415.621C1297.65 416.922 1295.69 418.877 1294.39 421.255L1289.85 429.563L1285.3 421.255C1284 418.877 1282.05 416.922 1279.67 415.621L1271.36 411.077L1279.67 406.534C1282.05 405.233 1284 403.278 1285.3 400.9L1289.85 392.592Z" fill="#01502E" fill-opacity="0.1"/>
<path d="M1247.95 269.354L1252.49 277.663C1253.79 280.041 1255.75 281.996 1258.12 283.296L1266.43 287.84L1258.12 292.384C1255.75 293.684 1253.79 295.64 1252.49 298.018L1247.95 306.326L1243.4 298.018C1242.1 295.64 1240.15 293.684 1237.77 292.384L1229.46 287.84L1237.77 283.296C1240.15 281.996 1242.1 280.041 1243.4 277.663L1247.95 269.354Z" fill="#01502E" fill-opacity="0.1"/>
<path d="M1082.19 436.957L1086.74 445.265C1088.04 447.643 1089.99 449.598 1092.37 450.899L1100.68 455.443L1092.37 459.987C1089.99 461.287 1088.04 463.242 1086.74 465.62L1082.19 473.928L1077.65 465.62C1076.35 463.242 1074.39 461.287 1072.02 459.987L1063.71 455.443L1072.02 450.899C1074.39 449.598 1076.35 447.643 1077.65 445.265L1082.19 436.957Z" fill="#01502E" fill-opacity="0.1"/>
<path d="M1164.76 353.156L1169.31 361.464C1170.61 363.842 1172.56 365.797 1174.94 367.098L1183.25 371.642L1174.94 376.185C1172.56 377.486 1170.61 379.441 1169.31 381.819L1164.76 390.127L1160.22 381.819C1158.92 379.441 1156.96 377.486 1154.58 376.185L1146.28 371.642L1154.58 367.098C1156.96 365.797 1158.92 363.842 1160.22 361.464L1164.76 353.156Z" fill="#01502E" fill-opacity="0.1"/>
<path d="M1248.56 434.493L1253.11 442.801C1254.41 445.179 1256.36 447.134 1258.74 448.434L1267.05 452.978L1258.74 457.522C1256.36 458.823 1254.41 460.778 1253.11 463.156L1248.56 471.464L1244.02 463.156C1242.72 460.778 1240.76 458.823 1238.39 457.522L1230.08 452.978L1238.39 448.434C1240.76 447.134 1242.72 445.179 1244.02 442.801L1248.56 434.493Z" fill="#01502E" fill-opacity="0.1"/>
<path d="M1247.95 353.156L1252.49 361.464C1253.79 363.842 1255.75 365.797 1258.12 367.098L1266.43 371.642L1258.12 376.185C1255.75 377.486 1253.79 379.441 1252.49 381.819L1247.95 390.127L1243.4 381.819C1242.1 379.441 1240.15 377.486 1237.77 376.185L1229.46 371.642L1237.77 367.098C1240.15 365.797 1242.1 363.842 1243.4 361.464L1247.95 353.156Z" fill="#01502E" fill-opacity="0.1"/>
<path d="M1164.76 436.957L1169.31 445.265C1170.61 447.643 1172.56 449.598 1174.94 450.899L1183.25 455.443L1174.94 459.987C1172.56 461.287 1170.61 463.242 1169.31 465.62L1164.76 473.928L1160.22 465.62C1158.92 463.242 1156.96 461.287 1154.58 459.987L1146.28 455.443L1154.58 450.899C1156.96 449.598 1158.92 447.643 1160.22 445.265L1164.76 436.957Z" fill="#01502E" fill-opacity="0.1"/>
<path d="M1289.85 311.255L1294.39 319.563C1295.69 321.941 1297.65 323.896 1300.03 325.197L1308.33 329.741L1300.03 334.285C1297.65 335.585 1295.69 337.54 1294.39 339.918L1289.85 348.226L1285.3 339.918C1284 337.54 1282.05 335.585 1279.67 334.285L1271.36 329.741L1279.67 325.197C1282.05 323.896 1284 321.941 1285.3 319.563L1289.85 311.255Z" fill="#01502E" fill-opacity="0.1"/>
<path d="M1206.66 395.057L1211.21 403.365C1212.51 405.743 1214.46 407.698 1216.84 408.998L1225.15 413.542L1216.84 418.086C1214.46 419.387 1212.51 421.342 1211.21 423.72L1206.66 432.028L1202.12 423.72C1200.82 421.342 1198.86 419.387 1196.48 418.086L1188.18 413.542L1196.48 408.998C1198.86 407.698 1200.82 405.743 1202.12 403.365L1206.66 395.057Z" fill="#01502E" fill-opacity="0.1"/>
</g>
<defs>
<clipPath id="clip0_755_9401">
<rect width="1296" height="466" rx="32" fill="white"/>
</clipPath>
</defs>
</svg>
