<svg width="328" height="376" viewBox="0 0 328 376" fill="none" xmlns="http://www.w3.org/2000/svg">
<g clip-path="url(#clip0_799_3432)">
<rect width="328" height="376" rx="24" fill="#B5DDC2"/>
<path d="M43.2492 2.71741L46.9107 9.41207C47.9587 11.3282 49.5341 12.9037 51.4503 13.9517L58.145 17.6131L51.4503 21.2746C49.5341 22.3226 47.9587 23.898 46.9107 25.8142L43.2492 32.5089L39.5878 25.8142C38.5398 23.898 36.9643 22.3226 35.0482 21.2746L28.3535 17.6131L35.0482 13.9517C36.9644 12.9037 38.5398 11.3282 39.5878 9.41207L43.2492 2.71741Z" fill="#01502E" fill-opacity="0.1"/>
<path d="M9.98167 36.481L13.6431 43.1756C14.6911 45.0918 16.2666 46.6673 18.1827 47.7153L24.8774 51.3767L18.1827 55.0381C16.2666 56.0861 14.6911 57.6616 13.6431 59.5778L9.98167 66.2724L6.32023 59.5778C5.27224 57.6616 3.69677 56.0861 1.7806 55.0381L-4.91406 51.3767L1.7806 47.7153C3.69677 46.6673 5.27225 45.0918 6.32023 43.1756L9.98167 36.481Z" fill="#01502E" fill-opacity="0.1"/>
<path d="M-7.89333 -14.1643L-4.2319 -7.46964C-3.18391 -5.55347 -1.60844 -3.978 0.307732 -2.93001L7.0024 0.731423L0.307732 4.39286C-1.60844 5.44085 -3.18391 7.01632 -4.2319 8.93249L-7.89333 15.6272L-11.5548 8.93249C-12.6028 7.01632 -14.1782 5.44085 -16.0944 4.39286L-22.7891 0.731423L-16.0944 -2.93001C-14.1782 -3.978 -12.6028 -5.55347 -11.5548 -7.46964L-7.89333 -14.1643Z" fill="#01502E"/>
<path d="M59.1379 -14.1643L62.7994 -7.46964C63.8473 -5.55347 65.4228 -3.978 67.339 -2.93001L74.0336 0.731423L67.339 4.39286C65.4228 5.44085 63.8473 7.01632 62.7994 8.93249L59.1379 15.6272L55.4765 8.93249C54.4285 7.01632 52.853 5.44085 50.9369 4.39286L44.2422 0.731423L50.9369 -2.93001C52.853 -3.978 54.4285 -5.55347 55.4765 -7.46964L59.1379 -14.1643Z" fill="#01502E" fill-opacity="0.1"/>
<path d="M-7.89333 53.3629L-4.2319 60.0576C-3.18391 61.9738 -1.60844 63.5492 0.307732 64.5972L7.0024 68.2586L0.307732 71.9201C-1.60844 72.9681 -3.18391 74.5435 -4.2319 76.4597L-7.89333 83.1544L-11.5548 76.4597C-12.6028 74.5435 -14.1782 72.9681 -16.0944 71.9201L-22.7891 68.2586L-16.0944 64.5972C-14.1782 63.5492 -12.6028 61.9737 -11.5548 60.0576L-7.89333 53.3629Z" fill="#01502E" fill-opacity="0.1"/>
<path d="M25.8713 19.5994L29.5328 26.294C30.5807 28.2102 32.1562 29.7857 34.0724 30.8337L40.767 34.4951L34.0724 38.1565C32.1562 39.2045 30.5807 40.78 29.5328 42.6962L25.8713 49.3908L22.2099 42.6962C21.1619 40.78 19.5864 39.2045 17.6703 38.1565L10.9756 34.4951L17.6703 30.8337C19.5864 29.7857 21.1619 28.2102 22.2099 26.294L25.8713 19.5994Z" fill="#01502E" fill-opacity="0.1"/>
<path d="M26.3664 -14.1643L30.0279 -7.46964C31.0759 -5.55347 32.6513 -3.978 34.5675 -2.93001L41.2622 0.731423L34.5675 4.39286C32.6513 5.44085 31.0759 7.01632 30.0279 8.93249L26.3664 15.6272L22.705 8.93249C21.657 7.01632 20.0815 5.44085 18.1654 4.39286L11.4707 0.731423L18.1654 -2.93001C20.0815 -3.978 21.657 -5.55347 22.705 -7.46964L26.3664 -14.1643Z" fill="#01502E" fill-opacity="0.1"/>
<path d="M-6.90017 19.5994L-3.23873 26.294C-2.19074 28.2102 -0.615273 29.7857 1.3009 30.8337L7.99556 34.4951L1.3009 38.1565C-0.615273 39.2045 -2.19074 40.78 -3.23873 42.6962L-6.90017 49.3908L-10.5616 42.6962C-11.6096 40.78 -13.1851 39.2045 -15.1012 38.1565L-21.7959 34.4951L-15.1012 30.8337C-13.1851 29.7857 -11.6096 28.2102 -10.5616 26.294L-6.90017 19.5994Z" fill="#01502E" fill-opacity="0.1"/>
<path d="M60.1311 19.5994L63.7925 26.294C64.8405 28.2102 66.416 29.7857 68.3321 30.8337L75.0268 34.4951L68.3321 38.1565C66.416 39.2045 64.8405 40.78 63.7925 42.6962L60.1311 49.3908L56.4696 42.6962C55.4217 40.78 53.8462 39.2045 51.93 38.1565L45.2354 34.4951L51.93 30.8337C53.8462 29.7857 55.4217 28.2102 56.4696 26.294L60.1311 19.5994Z" fill="#01502E" fill-opacity="0.1"/>
<path d="M-6.90017 87.1267L-3.23873 93.8214C-2.19074 95.7375 -0.615273 97.313 1.3009 98.361L7.99556 102.022L1.3009 105.684C-0.615273 106.732 -2.19074 108.307 -3.23873 110.224L-6.90017 116.918L-10.5616 110.224C-11.6096 108.307 -13.1851 106.732 -15.1012 105.684L-21.7959 102.022L-15.1012 98.361C-13.1851 97.313 -11.6096 95.7375 -10.5616 93.8214L-6.90017 87.1267Z" fill="#01502E" fill-opacity="0.1"/>
<path d="M93.8948 -14.1643L97.5562 -7.46964C98.6042 -5.55347 100.18 -3.978 102.096 -2.93001L108.79 0.731423L102.096 4.39286C100.18 5.44085 98.6042 7.01632 97.5562 8.93249L93.8948 15.6272L90.2333 8.93249C89.1853 7.01632 87.6099 5.44085 85.6937 4.39286L78.999 0.731423L85.6937 -2.93001C87.6099 -3.978 89.1853 -5.55347 90.2333 -7.46964L93.8948 -14.1643Z" fill="#01502E" fill-opacity="0.1"/>
<path d="M26.8645 53.3629L30.5259 60.0576C31.5739 61.9738 33.1494 63.5492 35.0655 64.5972L41.7602 68.2586L35.0655 71.9201C33.1494 72.9681 31.5739 74.5435 30.5259 76.4597L26.8645 83.1544L23.203 76.4597C22.1551 74.5435 20.5796 72.9681 18.6634 71.9201L11.9688 68.2586L18.6634 64.5972C20.5796 63.5492 22.1551 61.9737 23.203 60.0576L26.8645 53.3629Z" fill="#01502E" fill-opacity="0.1"/>
<path d="M8.9885 2.71741L12.6499 9.41207C13.6979 11.3282 15.2734 12.9037 17.1896 13.9517L23.8842 17.6131L17.1896 21.2746C15.2734 22.3226 13.6979 23.898 12.6499 25.8142L8.9885 32.5089L5.32707 25.8142C4.27908 23.898 2.70361 22.3226 0.78744 21.2746L-5.90723 17.6131L0.787441 13.9517C2.70361 12.9037 4.27908 11.3282 5.32707 9.41207L8.9885 2.71741Z" fill="#01502E" fill-opacity="0.1"/>
<path d="M76.0198 2.71741L79.6812 9.41207C80.7292 11.3282 82.3046 12.9037 84.2208 13.9517L90.9155 17.6131L84.2208 21.2746C82.3046 22.3226 80.7292 23.898 79.6812 25.8142L76.0198 32.5089L72.3583 25.8142C71.3103 23.898 69.7349 22.3226 67.8187 21.2746L61.124 17.6131L67.8187 13.9517C69.7349 12.9037 71.3103 11.3282 72.3583 9.41207L76.0198 2.71741Z" fill="#01502E" fill-opacity="0.1"/>
<path d="M8.9885 70.2449L12.6499 76.9395C13.6979 78.8557 15.2734 80.4312 17.1896 81.4792L23.8842 85.1406L17.1896 88.802C15.2734 89.85 13.6979 91.4255 12.6499 93.3417L8.9885 100.036L5.32707 93.3417C4.27908 91.4255 2.70361 89.85 0.78744 88.802L-5.90723 85.1406L0.787441 81.4792C2.70361 80.4312 4.27908 78.8557 5.32707 76.9395L8.9885 70.2449Z" fill="#01502E" fill-opacity="0.1"/>
<path d="M42.7532 36.481L46.4146 43.1756C47.4626 45.0918 49.038 46.6673 50.9542 47.7153L57.6489 51.3767L50.9542 55.0381C49.038 56.0861 47.4626 57.6616 46.4146 59.5778L42.7532 66.2724L39.0917 59.5778C38.0437 57.6616 36.4683 56.0861 34.5521 55.0381L27.8574 51.3767L34.5521 47.7153C36.4683 46.6673 38.0437 45.0918 39.0917 43.1756L42.7532 36.481Z" fill="#01502E"/>
<path d="M339.328 281.727L342.99 288.422C344.038 290.338 345.613 291.914 347.529 292.962L354.224 296.623L347.529 300.284C345.613 301.332 344.038 302.908 342.99 304.824L339.328 311.519L335.667 304.824C334.619 302.908 333.043 301.332 331.127 300.284L324.433 296.623L331.127 292.962C333.043 291.914 334.619 290.338 335.667 288.422L339.328 281.727Z" fill="#01502E" fill-opacity="0.1"/>
<path d="M272.298 349.255L275.96 355.949C277.007 357.866 278.583 359.441 280.499 360.489L287.194 364.15L280.499 367.812C278.583 368.86 277.007 370.435 275.96 372.352L272.298 379.046L268.637 372.352C267.589 370.435 266.013 368.86 264.097 367.812L257.402 364.15L264.097 360.489C266.013 359.441 267.589 357.866 268.637 355.949L272.298 349.255Z" fill="#01502E" fill-opacity="0.1"/>
<path d="M306.061 315.491L309.722 322.186C310.77 324.102 312.346 325.678 314.262 326.726L320.956 330.387L314.262 334.048C312.346 335.096 310.77 336.672 309.722 338.588L306.061 345.283L302.399 338.588C301.351 336.672 299.776 335.096 297.86 334.048L291.165 330.387L297.86 326.726C299.776 325.678 301.351 324.102 302.399 322.186L306.061 315.491Z" fill="#01502E" fill-opacity="0.1"/>
<path d="M339.824 349.255L343.486 355.949C344.534 357.866 346.109 359.441 348.026 360.489L354.72 364.15L348.026 367.812C346.109 368.86 344.534 370.435 343.486 372.352L339.824 379.046L336.163 372.352C335.115 370.435 333.54 368.86 331.623 367.812L324.929 364.15L331.623 360.489C333.54 359.441 335.115 357.866 336.163 355.949L339.824 349.255Z" fill="#01502E" fill-opacity="0.1"/>
<path d="M288.186 332.373L291.847 339.067C292.895 340.984 294.471 342.559 296.387 343.607L303.081 347.269L296.387 350.93C294.471 351.978 292.895 353.553 291.847 355.47L288.186 362.164L284.524 355.47C283.476 353.553 281.901 351.978 279.985 350.93L273.29 347.269L279.985 343.607C281.901 342.559 283.476 340.984 284.524 339.067L288.186 332.373Z" fill="#01502E" fill-opacity="0.1"/>
<path d="M255.416 366.136L259.078 372.831C260.126 374.747 261.701 376.323 263.617 377.371L270.312 381.032L263.617 384.694C261.701 385.742 260.126 387.317 259.078 389.233L255.416 395.928L251.755 389.233C250.707 387.317 249.131 385.742 247.215 384.694L240.521 381.032L247.215 377.371C249.131 376.323 250.707 374.747 251.755 372.831L255.416 366.136Z" fill="#01502E" fill-opacity="0.1"/>
<path d="M321.95 298.609L325.612 305.304C326.66 307.22 328.235 308.796 330.151 309.844L336.846 313.505L330.151 317.166C328.235 318.214 326.66 319.79 325.612 321.706L321.95 328.401L318.289 321.706C317.241 319.79 315.666 318.214 313.749 317.166L307.055 313.505L313.749 309.844C315.666 308.796 317.241 307.22 318.289 305.304L321.95 298.609Z" fill="#01502E" fill-opacity="0.1"/>
<path d="M321.95 366.136L325.612 372.831C326.66 374.747 328.235 376.323 330.151 377.371L336.846 381.032L330.151 384.694C328.235 385.742 326.66 387.317 325.612 389.233L321.95 395.928L318.289 389.233C317.241 387.317 315.666 385.742 313.749 384.694L307.055 381.032L313.749 377.371C315.666 376.323 317.241 374.747 318.289 372.831L321.95 366.136Z" fill="#01502E" fill-opacity="0.1"/>
<path d="M289.179 366.136L292.84 372.831C293.888 374.747 295.464 376.323 297.38 377.371L304.075 381.032L297.38 384.694C295.464 385.742 293.888 387.317 292.84 389.233L289.179 395.928L285.517 389.233C284.47 387.317 282.894 385.742 280.978 384.694L274.283 381.032L280.978 377.371C282.894 376.323 284.47 374.747 285.517 372.831L289.179 366.136Z" fill="#01502E" fill-opacity="0.1"/>
<path d="M322.944 332.373L326.605 339.067C327.653 340.984 329.228 342.559 331.145 343.607L337.839 347.269L331.145 350.93C329.228 351.978 327.653 353.553 326.605 355.47L322.944 362.164L319.282 355.47C318.234 353.553 316.659 351.978 314.743 350.93L308.048 347.269L314.743 343.607C316.659 342.559 318.234 340.984 319.282 339.067L322.944 332.373Z" fill="#01502E" fill-opacity="0.1"/>
<path d="M305.068 349.255L308.729 355.949C309.777 357.866 311.353 359.441 313.269 360.489L319.963 364.15L313.269 367.812C311.353 368.86 309.777 370.435 308.729 372.352L305.068 379.046L301.406 372.352C300.358 370.435 298.783 368.86 296.867 367.812L290.172 364.15L296.867 360.489C298.783 359.441 300.358 357.866 301.406 355.949L305.068 349.255Z" fill="#01502E"/>
<path d="M338.831 315.491L342.493 322.186C343.541 324.102 345.116 325.678 347.032 326.726L353.727 330.387L347.032 334.048C345.116 335.096 343.541 336.672 342.493 338.588L338.831 345.283L335.17 338.588C334.122 336.672 332.546 335.096 330.63 334.048L323.936 330.387L330.63 326.726C332.546 325.678 334.122 324.102 335.17 322.186L338.831 315.491Z" fill="#01502E" fill-opacity="0.1"/>
</g>
<defs>
<clipPath id="clip0_799_3432">
<rect width="328" height="376" rx="24" fill="white"/>
</clipPath>
</defs>
</svg>
