<svg width="57" height="57" viewBox="0 0 57 57" fill="none" xmlns="http://www.w3.org/2000/svg">
<g clip-path="url(#clip0_753_5178)">
<mask id="mask0_753_5178" style="mask-type:luminance" maskUnits="userSpaceOnUse" x="0" y="0" width="57" height="57">
<path d="M0.0371094 8.74243L48.2576 0.0372003L56.9629 48.2577L8.74234 56.963L0.0371094 8.74243Z" fill="white"/>
</mask>
<g mask="url(#mask0_753_5178)">
<mask id="mask1_753_5178" style="mask-type:luminance" maskUnits="userSpaceOnUse" x="0" y="0" width="57" height="57">
<path d="M0.0371094 8.74243L48.2576 0.0372003L56.9629 48.2577L8.74234 56.963L0.0371094 8.74243Z" fill="white"/>
</mask>
<g mask="url(#mask1_753_5178)">
<path d="M31.7249 28.3292L27.337 25.2833L43.1657 2.48049C43.3657 2.19237 43.6205 1.94647 43.9155 1.75682C44.2105 1.56717 44.54 1.43749 44.8852 1.37518C45.2303 1.31287 45.5843 1.31915 45.9271 1.39367C46.2698 1.46819 46.5945 1.60948 46.8826 1.80947C47.1707 2.00947 47.4166 2.26426 47.6063 2.55929C47.7959 2.85432 47.9256 3.18381 47.9879 3.52896C48.0502 3.87411 48.0439 4.22815 47.9694 4.57087C47.8949 4.91359 47.7536 5.23827 47.5536 5.52639L31.7249 28.3292Z" fill="#29CE69"/>
<path d="M30.8926 20.1614L27.336 25.2837L31.7249 28.3294L35.0837 23.4907C33.8534 22.1859 32.4419 21.0646 30.8926 20.1614Z" fill="#00C140"/>
<path d="M19.9253 49.8571C19.9253 49.8571 17.2452 49.7251 14.9959 48.1628C12.7458 46.6018 11.685 44.137 11.685 44.137L22.9608 27.8944L31.201 33.6144L19.9253 49.8571Z" fill="#F9EE80"/>
<path d="M21.2154 26.6832C21.2154 26.6832 15.6534 30.3223 10.1542 29.8172C8.9122 29.7031 7.88708 30.7905 8.06335 32.0258C8.2477 33.3115 8.71146 34.9573 9.769 36.7062C9.86819 36.5633 19.6632 32.4894 23.6906 26.84C23.6688 26.719 21.2154 26.6832 21.2154 26.6832Z" fill="#F4E74D"/>
<path d="M21.2173 26.6829C21.2173 26.6829 15.802 33.8134 8.52994 34.9261C8.24492 34.9695 7.9744 35.0804 7.74093 35.2496C7.50746 35.4187 7.31781 35.6413 7.18778 35.8986C7.05775 36.1559 6.99111 36.4406 6.99342 36.7289C6.99572 37.0172 7.0669 37.3008 7.20103 37.556C8.25744 39.5632 9.54957 42.0431 9.54957 42.0431C9.54957 42.0431 19.1794 39.1198 25.7593 28.2743C25.6164 28.1751 21.2173 26.6829 21.2173 26.6829Z" fill="#F9EE80"/>
<path d="M23.7646 28.4504C23.7646 28.4504 17.1677 37.35 7.71208 40.3434C7.53165 40.4009 7.36726 40.5 7.23217 40.6327C7.09709 40.7654 6.99509 40.928 6.93441 41.1074C6.87373 41.2867 6.85607 41.4779 6.88285 41.6653C6.90964 41.8528 6.98012 42.0313 7.0886 42.1865C7.4135 42.6522 7.77635 43.1761 8.11169 43.6602C8.45488 44.1577 8.95948 44.5212 9.54002 44.6892C10.1206 44.8571 10.7413 44.8193 11.2971 44.582C14.5034 43.2044 20.9807 39.5414 27.0815 30.7538L23.7646 28.4504Z" fill="#FCF5AF"/>
<path d="M32.9438 34.8239C32.9438 34.8239 31.4795 41.3082 33.8754 46.2827C34.4168 47.4074 33.7563 48.7471 32.5373 49.0139C31.2685 49.2917 29.5642 49.4317 27.5549 49.0526C27.6543 48.9107 28.0459 38.3085 31.9314 32.5597C32.0525 32.5379 32.9438 34.8239 32.9438 34.8239Z" fill="#F4E74D"/>
<path d="M32.9446 34.824C32.9446 34.824 28.1578 42.3907 29.6581 49.5928C29.7171 49.875 29.7078 50.1672 29.6309 50.4451C29.5541 50.723 29.4119 50.9785 29.2163 51.1903C29.0207 51.4021 28.7773 51.564 28.5064 51.6627C28.2354 51.7613 27.9449 51.7938 27.6589 51.7574C25.4089 51.4695 22.6338 51.1261 22.6338 51.1261C22.6338 51.1261 22.0044 41.0821 29.8655 31.1251C30.0084 31.2243 32.9446 34.824 32.9446 34.824Z" fill="#F9EE80"/>
<path d="M30.3967 33.0556C30.3967 33.0556 24.3654 42.3469 24.8684 52.2531C24.8776 52.4422 24.8423 52.6309 24.7652 52.8039C24.6881 52.9768 24.5714 53.1292 24.4246 53.2488C24.2777 53.3684 24.1048 53.4517 23.9199 53.4922C23.7349 53.5326 23.543 53.529 23.3596 53.4817L21.6212 53.0385C21.0352 52.8909 20.5182 52.5452 20.1578 52.0601C19.7974 51.5749 19.6158 50.9801 19.6438 50.3764C19.8123 46.891 20.9802 39.5416 27.0799 30.7532L30.3967 33.0556Z" fill="#FCF5AF"/>
<path d="M21.2168 26.683L32.9447 34.824C32.9447 34.824 36.7478 29.3452 30.8845 25.2751C25.02 21.2042 21.2168 26.683 21.2168 26.683Z" fill="#73DA8C"/>
<path d="M46.8815 1.80973C46.5934 1.60964 46.2688 1.46827 45.926 1.3937C45.5833 1.31913 45.2292 1.31282 44.884 1.37513C44.5389 1.43745 44.2093 1.56716 43.9143 1.75687C43.6193 1.94657 43.3645 2.19255 43.1646 2.48074L41.1574 5.37234L45.5453 8.41824L47.5533 5.52548C47.7533 5.23745 47.8945 4.91285 47.969 4.57022C48.0435 4.22759 48.0498 3.87364 47.9875 3.52858C47.9252 3.18352 47.7956 2.85411 47.606 2.55916C47.4164 2.26421 47.1696 2.00967 46.8815 1.80973Z" fill="#516980"/>
<path d="M30.8845 25.2751C25.02 21.2042 21.2168 26.683 21.2168 26.683L27.6111 31.1216C27.6155 30.1456 27.4417 29.1769 27.0981 28.2633C26.9307 27.8205 26.9132 27.335 27.0482 26.8813C27.1833 26.4276 27.4635 26.0307 27.8458 25.7515C29.3245 24.6889 30.8845 25.2751 30.8845 25.2751Z" fill="#29CE69"/>
<path d="M23.7646 28.4504C23.7646 28.4504 17.1677 37.35 7.71208 40.3434C7.53165 40.4009 7.36726 40.5 7.23217 40.6327C7.09709 40.7654 6.99509 40.928 6.93441 41.1074C6.87373 41.2867 6.85607 41.4779 6.88285 41.6653C6.90964 41.8528 6.98012 42.0313 7.0886 42.1865C7.4135 42.6522 7.77635 43.1761 8.11169 43.6602C8.45488 44.1577 8.95948 44.5212 9.54002 44.6892C10.1206 44.8571 10.7413 44.8193 11.2971 44.582C14.5034 43.2044 20.9807 39.5414 27.0815 30.7538L23.7646 28.4504Z" stroke="black" stroke-width="1.436" stroke-miterlimit="10" stroke-linejoin="round"/>
<path d="M21.2167 26.6832L32.9446 34.8241C32.9446 34.8241 36.7477 29.3453 30.8844 25.2753C25.0199 21.2044 21.2167 26.6832 21.2167 26.6832ZM30.3969 33.0556C30.3969 33.0556 24.3656 42.3469 24.8685 52.2532C24.8778 52.4423 24.8424 52.631 24.7653 52.8039C24.6883 52.9769 24.5716 53.1293 24.4248 53.2489C24.2779 53.3684 24.105 53.4518 23.92 53.4923C23.735 53.5327 23.5431 53.5291 23.3598 53.4818L21.6214 53.0385C21.0353 52.891 20.5183 52.5453 20.158 52.0602C19.7976 51.575 19.616 50.9802 19.644 50.3765C19.8125 46.8911 20.9804 39.5417 27.0801 30.7533L30.3969 33.0556Z" stroke="black" stroke-width="1.436" stroke-miterlimit="10" stroke-linejoin="round"/>
<path d="M21.217 26.683C21.217 26.683 15.8016 33.8135 8.52963 34.9261C8.24473 34.9696 7.97433 35.0805 7.74095 35.2496C7.50758 35.4187 7.31798 35.6411 7.18795 35.8983C7.05792 36.1555 6.99122 36.44 6.99341 36.7282C6.9956 37.0164 7.06662 37.2999 7.20054 37.5551C7.63554 38.383 8.11123 39.2899 8.51945 40.0708" stroke="black" stroke-width="1.436" stroke-miterlimit="10" stroke-linejoin="round"/>
<path d="M21.2152 26.6833C21.2152 26.6833 15.6533 30.3223 10.1541 29.8172C8.91202 29.7031 7.88789 30.7903 8.06317 32.0258C8.18342 32.8608 8.42064 33.8483 8.86249 34.9168" stroke="black" stroke-width="1.436" stroke-miterlimit="10" stroke-linejoin="round"/>
<path d="M29.3693 46.8902C29.3817 47.7862 29.4712 48.6928 29.6588 49.5917C29.718 49.874 29.7088 50.1663 29.6321 50.4443C29.5553 50.7223 29.4132 50.9779 29.2176 51.1898C29.0219 51.4018 28.7785 51.5638 28.5075 51.6625C28.2365 51.7613 27.9459 51.7937 27.6598 51.7573C26.733 51.6391 25.716 51.5107 24.8417 51.4013M32.9455 34.8239C32.9455 34.8239 30.4125 38.8276 29.6091 43.7831" stroke="black" stroke-width="1.436" stroke-miterlimit="10" stroke-linecap="round" stroke-linejoin="round"/>
<path d="M32.9439 34.8241C32.9439 34.8241 31.4796 41.3084 33.8755 46.2828C34.4169 47.4075 33.7564 48.7472 32.5374 49.014C31.5716 49.2223 30.5839 49.3109 29.5965 49.2777M19.4858 49.8134C18.6332 49.7062 16.6917 49.3423 14.9942 48.1632C13.1551 46.8866 12.1103 45.0053 11.7899 44.362" stroke="black" stroke-width="1.436" stroke-miterlimit="10" stroke-linejoin="round"/>
<path d="M39.1041 8.33233L43.1671 2.48042C43.571 1.89854 44.1895 1.50095 44.8866 1.37511C45.5836 1.24928 46.3021 1.40549 46.884 1.80941C47.4659 2.21332 47.8635 2.83184 47.9893 3.52889C48.1151 4.22595 47.9589 4.94445 47.555 5.52632L32.7076 26.9143M28.2333 23.9927L37.4652 10.692" stroke="black" stroke-width="1.436" stroke-miterlimit="10" stroke-linecap="round" stroke-linejoin="round"/>
<path d="M41.1572 5.37231L45.5452 8.41822" stroke="black" stroke-width="1.436" stroke-miterlimit="10" stroke-linejoin="round"/>
</g>
</g>
</g>
<defs>
<clipPath id="clip0_753_5178">
<rect width="49" height="49" fill="white" transform="translate(0.0371094 8.74243) rotate(-10.2334)"/>
</clipPath>
</defs>
</svg>
