<svg width="25" height="25" viewBox="0 0 25 25" fill="none" xmlns="http://www.w3.org/2000/svg">
<g clip-path="url(#clip0_753_5223)">
<mask id="mask0_753_5223" style="mask-type:luminance" maskUnits="userSpaceOnUse" x="0" y="0" width="25" height="25">
<path d="M0.481445 3.99475L20.7943 0.689508L24.0995 21.0024L3.78669 24.3076L0.481445 3.99475Z" fill="white"/>
</mask>
<g mask="url(#mask0_753_5223)">
<path d="M11.7621 5.14873L6.7875 5.95818L6.53906 4.4314L11.5141 3.62188C11.7142 3.59409 11.9173 3.64569 12.0798 3.76567C12.2424 3.88565 12.3516 4.06448 12.3841 4.26392C12.4165 4.46335 12.3697 4.66757 12.2535 4.83291C12.1373 4.99824 11.9607 5.11164 11.7621 5.14873Z" fill="#6A829A"/>
<path d="M8.53674 6.89972L6.19993 7.27996L5.77011 4.63846C5.74192 4.48365 5.74487 4.32477 5.77879 4.17111C5.81271 4.01745 5.87692 3.87209 5.96767 3.74354C6.05842 3.61498 6.17388 3.50581 6.30732 3.42239C6.44075 3.33898 6.58947 3.283 6.74478 3.25772C6.9001 3.23245 7.05889 3.23839 7.21189 3.2752C7.36488 3.31201 7.509 3.37895 7.63583 3.4721C7.76265 3.56525 7.86963 3.68275 7.95052 3.81773C8.03141 3.95271 8.08458 4.10246 8.10692 4.25822L8.53674 6.89972Z" fill="#889CB0"/>
<path d="M10.277 9.30348L5.39324 10.0982L5.10636 8.33508C5.05743 8.03438 5.12996 7.72656 5.30799 7.47934C5.48602 7.23211 5.75496 7.06574 6.05566 7.01681L8.67229 6.59104C8.82121 6.56675 8.97345 6.57204 9.12032 6.6066C9.2672 6.64117 9.40582 6.70433 9.52828 6.79248C9.65074 6.88062 9.75463 6.99204 9.83402 7.12034C9.91341 7.24865 9.96675 7.39135 9.99098 7.54027L10.2779 9.30334L10.277 9.30348Z" fill="#A7B6C5"/>
<path d="M5.1898 11.9918C6.17394 11.8317 7.13349 11.9781 8.04189 12.4273C8.84339 12.8237 9.67671 12.9553 10.5195 12.8182C12.0264 12.573 12.8614 11.8392 13.408 11.3461L13.3112 10.7516C13.1818 9.95599 12.7416 9.24439 12.0875 8.77331C11.4334 8.30224 10.619 8.11026 9.82341 8.2396L5.48641 8.94531C4.69074 9.07478 3.97909 9.51502 3.50801 10.1692C3.03694 10.8234 2.84502 11.6379 2.97449 12.4336L3.04498 12.8668C3.53232 12.5981 4.50373 12.1034 5.1898 11.9918Z" fill="#C2EAFB"/>
<path d="M6.78223 8.73438L8.52664 8.45053L9.38142 13.7037L7.637 13.9875L6.78223 8.73438Z" fill="#91D4F2"/>
<path d="M6.56072 23.5503L15.1655 22.1502L13.3108 10.7518C13.3108 10.7518 11.0528 13.4681 8.21978 12.0669C5.38633 10.6659 2.97396 12.4333 2.97396 12.4333L4.54699 22.1006C4.62183 22.5598 4.87602 22.9706 5.25366 23.2424C5.63129 23.5143 6.10145 23.625 6.56072 23.5503Z" fill="#FFB3C2"/>
<path d="M14.1138 15.6862L12.1082 16.0126C11.3784 16.1313 10.7257 16.5351 10.2936 17.1352C9.86148 17.7352 9.68545 18.4823 9.8042 19.2121L10.4083 22.9244L15.1656 22.1503L14.1138 15.6862Z" fill="#FF899F"/>
<path d="M19.7934 16.7579L13.6809 17.7526C13.2921 17.8158 12.8941 17.722 12.5745 17.4919C12.2549 17.2617 12.0398 16.914 11.9765 16.5252L11.8205 15.5668C11.7573 15.178 11.8511 14.7801 12.0812 14.4604C12.3114 14.1408 12.6591 13.9257 13.0479 13.8624L19.1604 12.8678C19.3529 12.8364 19.5497 12.8433 19.7396 12.888C19.9295 12.9327 20.1087 13.0143 20.267 13.1283C20.4253 13.2423 20.5596 13.3863 20.6622 13.5522C20.7649 13.7181 20.8338 13.9026 20.8652 14.0951L21.0211 15.0535C21.0524 15.2461 21.0455 15.4429 21.0008 15.6327C20.956 15.8226 20.8743 16.0018 20.7603 16.1601C20.6463 16.3183 20.5022 16.4526 20.3363 16.5552C20.1704 16.6578 19.9859 16.7267 19.7934 16.7579Z" fill="#F9EE80"/>
<path d="M14.5732 16.1027L14.4173 15.1443C14.354 14.7555 14.4478 14.3575 14.678 14.0379C14.9081 13.7183 15.2558 13.5032 15.6446 13.4399L13.0479 13.8624C12.6591 13.9257 12.3114 14.1408 12.0812 14.4604C11.8511 14.7801 11.7573 15.178 11.8205 15.5668L11.9765 16.5252C12.0398 16.914 12.2549 17.2617 12.5745 17.4919C12.8941 17.722 13.2921 17.8158 13.6809 17.7526L16.2776 17.33C15.8888 17.3933 15.4909 17.2995 15.1712 17.0693C14.8516 16.8392 14.6365 16.4915 14.5732 16.1027Z" fill="#F4E74D"/>
<path d="M12.4102 19.1857L13.3052 21.3285C13.4304 21.6283 13.6531 21.8772 13.9371 22.035C14.2212 22.1927 14.5502 22.2502 14.8709 22.198L20.0756 21.3511C20.3963 21.2989 20.6902 21.1402 20.9097 20.9005C21.1291 20.6608 21.2615 20.3541 21.2853 20.03L21.4548 17.714L12.4102 19.1857Z" fill="#76E7E7"/>
<path d="M12.4102 19.1857L13.3052 21.3285C13.4304 21.6283 13.6531 21.8772 13.9371 22.035C14.2212 22.1927 14.5502 22.2502 14.8709 22.198L16.4615 21.9391C16.2981 19.4913 18.3449 19.1123 18.3449 19.1123L18.2035 18.243L12.4102 19.1857Z" fill="#2EDDDA"/>
<path d="M21.3904 18.6172L12.7566 20.0221C12.4393 20.0737 12.1145 19.9972 11.8536 19.8093C11.5928 19.6215 11.4172 19.3377 11.3656 19.0204C11.3139 18.7031 11.3905 18.3782 11.5783 18.1174C11.7662 17.8565 12.05 17.6809 12.3673 17.6293L21.0011 16.2244C21.3184 16.1728 21.6432 16.2493 21.9041 16.4372C22.1649 16.6251 22.3405 16.9089 22.3921 17.2262C22.4438 17.5435 22.3672 17.8683 22.1794 18.1291C21.9915 18.39 21.7077 18.5656 21.3904 18.6172Z" fill="#B0F0EF"/>
<path d="M13.8325 18.6189C13.7809 18.3016 13.8574 17.9768 14.0453 17.716C14.2332 17.4551 14.517 17.2795 14.8343 17.2279L12.3673 17.6293C12.05 17.6809 11.7662 17.8565 11.5783 18.1174C11.3905 18.3782 11.3139 18.7031 11.3656 19.0204C11.4172 19.3377 11.5928 19.6215 11.8536 19.8093C12.1145 19.9972 12.4393 20.0737 12.7566 20.0221L15.2232 19.6207C14.9059 19.6722 14.5812 19.5956 14.3204 19.4078C14.0597 19.2199 13.8842 18.9362 13.8325 18.6189Z" fill="#76E7E7"/>
<path d="M8.47296 15.3636C8.4047 14.9441 8.08235 14.6472 7.7532 14.7007C7.42363 14.7543 7.21156 15.1378 7.27989 15.5577C7.34822 15.9777 7.67099 16.2745 8.00055 16.2209C8.3297 16.1673 8.54129 15.7835 8.47296 15.3636Z" fill="#454545"/>
<path d="M10.6102 14.9124L10.5298 14.4182C10.517 14.3393 10.4733 14.2687 10.4084 14.222C10.3435 14.1752 10.2627 14.1562 10.1838 14.169C10.1048 14.1819 10.0342 14.2256 9.98747 14.2905C9.94074 14.3554 9.9217 14.4362 9.93454 14.5151L10.0149 15.0093C10.0278 15.0882 10.0715 15.1588 10.1364 15.2055C10.2013 15.2523 10.2821 15.2713 10.361 15.2585C10.44 15.2456 10.5106 15.2019 10.5573 15.137C10.604 15.0721 10.6231 14.9913 10.6102 14.9124ZM5.28013 14.9674C5.20127 14.9802 5.13071 15.0238 5.08398 15.0886C5.03724 15.1534 5.01813 15.2341 5.03085 15.313L5.11126 15.8072C5.1241 15.8861 5.16778 15.9567 5.23268 16.0034C5.29759 16.0502 5.3784 16.0692 5.45734 16.0564C5.53628 16.0435 5.60688 15.9999 5.65362 15.935C5.70035 15.8701 5.71939 15.7892 5.70655 15.7103L5.62614 15.2162C5.6132 15.1373 5.56949 15.0668 5.50462 15.0202C5.43974 14.9735 5.359 14.9545 5.28013 14.9674Z" fill="black"/>
<path d="M22.6899 17.1774C22.6327 16.8294 22.456 16.5123 22.1902 16.2806C21.9244 16.0489 21.5861 15.9172 21.2336 15.908C21.3396 15.6196 21.3692 15.3087 21.3195 15.0055L21.1636 14.0471C21.087 13.5796 20.828 13.1617 20.4437 12.8849C20.0593 12.6081 19.5808 12.495 19.1131 12.5706L14.0474 13.3948L13.6093 10.7028C13.3452 9.0794 11.9453 7.91912 10.3545 7.89968L10.2882 7.49176C10.2292 7.13273 10.0376 6.80891 9.75125 6.58442C9.46492 6.35993 9.10474 6.25113 8.742 6.27955L8.68912 5.95454L11.8111 5.44655C12.0924 5.40054 12.344 5.24476 12.5106 5.01341C12.6772 4.78206 12.7452 4.49405 12.6996 4.21262C12.6536 3.93126 12.4979 3.67967 12.2665 3.51307C12.0352 3.34647 11.7471 3.27849 11.4657 3.32406L8.29442 3.84008C8.15996 3.5417 7.93087 3.29597 7.64264 3.14094C7.3544 2.98591 7.0231 2.93023 6.70002 2.98252C6.3113 3.04611 5.96369 3.26135 5.73352 3.58099C5.50335 3.90062 5.40941 4.29853 5.47235 4.68736L5.81049 6.76549C5.47655 6.86933 5.19131 7.09021 5.0072 7.38753C4.82308 7.68485 4.75246 8.03863 4.80832 8.38385L4.87463 8.79135C3.37165 9.3142 2.41229 10.8584 2.67644 12.4817L4.24947 22.149C4.33757 22.687 4.63554 23.168 5.07797 23.4866C5.52039 23.8051 6.07113 23.9351 6.60928 23.8479L20.1235 21.649C20.5116 21.5869 20.8673 21.3953 21.1327 21.1054C21.3981 20.8156 21.5577 20.4444 21.5854 20.0524L21.673 18.8569C22.0142 18.743 22.3037 18.5116 22.49 18.204C22.6763 17.8963 22.7472 17.5325 22.6899 17.1774ZM12.9871 10.6606C12.606 11.061 12.1664 11.4014 11.6834 11.6702C10.9262 12.0853 10.1728 12.2407 9.43247 12.1364L8.87328 8.69984L9.87192 8.53734C10.5643 8.42554 11.2732 8.58334 11.8527 8.97828C12.4322 9.37322 12.838 9.97533 12.9871 10.6606ZM8.27792 8.79629L8.7963 11.9821C8.64839 11.9308 7.80146 11.5508 7.53249 11.4669L7.12844 8.98375L8.27799 8.7967L8.27792 8.79629ZM12.1048 4.30983C12.1467 4.56685 11.9713 4.80985 11.7143 4.85167L8.59191 5.35973L8.44014 4.427L11.5625 3.91894C11.8195 3.87711 12.063 4.05281 12.1048 4.30983ZM6.7973 3.57774C7.27734 3.49963 7.73139 3.82659 7.8095 4.30664L8.14542 6.37109L6.40349 6.65453L6.06757 4.59008C5.98946 4.11003 6.31683 3.65592 6.7973 3.57774ZM6.10363 7.31437L8.72067 6.88854C8.94238 6.8528 9.16922 6.90642 9.35146 7.03766C9.5337 7.16889 9.65647 7.36702 9.69287 7.58863L9.75102 7.94597L5.46169 8.64391L5.40354 8.28657C5.3678 8.06486 5.42143 7.83802 5.55266 7.65578C5.68389 7.47354 5.88203 7.35077 6.10363 7.31437ZM4.84511 22.0516L3.27215 12.3848C3.15645 11.6682 3.32968 10.935 3.75386 10.3459C4.17805 9.75686 4.81854 9.36009 5.53486 9.24263L6.5335 9.08014L6.8964 11.3104C5.76294 11.1046 4.76317 11.3073 4.04339 11.5649C3.96954 11.5929 3.90963 11.6487 3.87653 11.7204C3.84343 11.7921 3.83978 11.874 3.86638 11.9483C3.89297 12.0227 3.94768 12.0837 4.01874 12.1182C4.08981 12.1526 4.17156 12.1578 4.24642 12.1327C5.15317 11.8081 6.55565 11.5803 8.08643 12.3372C8.86899 12.7243 9.68776 12.8502 10.5081 12.7167C12.0271 12.4696 12.8393 11.6293 13.1088 11.3846L13.4517 13.4918L13.0002 13.5652C12.5327 13.6418 12.1147 13.9006 11.8379 14.2851C11.561 14.6695 11.448 15.148 11.5237 15.6157L11.6796 16.5741C11.7297 16.8821 11.8576 17.166 12.0472 17.4024C11.7156 17.5228 11.4365 17.7551 11.2578 18.0592C11.0791 18.3633 11.012 18.7202 11.0681 19.0685C11.1264 19.4234 11.3089 19.746 11.5831 19.9787C11.8573 20.2114 12.2053 20.3391 12.565 20.3389L13.0271 21.445C13.1349 21.7037 13.3034 21.9327 13.5183 22.1127L6.51283 23.2526C6.13249 23.314 5.7433 23.2221 5.43065 22.997C5.118 22.7718 4.90742 22.4318 4.84511 22.0516ZM20.9847 20.0084C20.9664 20.2651 20.8619 20.5081 20.688 20.6979C20.5142 20.8876 20.2812 21.013 20.0271 21.0536L14.8229 21.9004C14.569 21.9425 14.3083 21.8974 14.0833 21.7726C13.8582 21.6477 13.682 21.4504 13.5833 21.2128L13.1845 20.2573L21.06 18.9758L20.9847 20.0084ZM21.3426 18.3192L12.7088 19.724C12.4704 19.7626 12.2265 19.705 12.0306 19.5639C11.8347 19.4228 11.7028 19.2098 11.6638 18.9715C11.6252 18.7332 11.6828 18.4893 11.8239 18.2934C11.965 18.0975 12.178 17.9655 12.4163 17.9266L18.6751 16.9081C18.7154 16.9031 18.7542 16.89 18.7892 16.8697C18.8243 16.8493 18.8549 16.8221 18.8792 16.7896C18.9035 16.7572 18.921 16.7202 18.9307 16.6808C18.9404 16.6414 18.942 16.6005 18.9355 16.5605C18.929 16.5204 18.9145 16.4821 18.8928 16.4479C18.8711 16.4136 18.8428 16.384 18.8095 16.3609C18.7761 16.3378 18.7385 16.3217 18.6988 16.3135C18.659 16.3054 18.6181 16.3053 18.5783 16.3133L12.7676 17.2588C12.637 17.1684 12.526 17.0527 12.4413 16.9184C12.3565 16.7841 12.2998 16.6341 12.2745 16.4773L12.1186 15.5189C12.0686 15.209 12.1436 14.8919 12.3271 14.6372C12.5106 14.3826 12.7877 14.2111 13.0975 14.1605L19.21 13.1658C19.5198 13.1159 19.8367 13.1908 20.0913 13.3742C20.3459 13.5575 20.5175 13.8343 20.5683 14.144L20.7242 15.1024C20.7762 15.4216 20.6965 15.7426 20.5051 15.9997L19.9111 16.0964C19.8709 16.1014 19.8321 16.1145 19.797 16.1348C19.7619 16.1552 19.7313 16.1824 19.707 16.2149C19.6827 16.2473 19.6652 16.2844 19.6555 16.3237C19.6459 16.3631 19.6442 16.404 19.6507 16.4441C19.6573 16.4841 19.6718 16.5224 19.6934 16.5567C19.7151 16.591 19.7434 16.6205 19.7768 16.6436C19.8101 16.6667 19.8478 16.6828 19.8875 16.691C19.9272 16.6992 19.9681 16.6993 20.0079 16.6913L21.0501 16.5217C21.2884 16.4831 21.5323 16.5407 21.7282 16.6818C21.9241 16.8229 22.0561 17.0359 22.0951 17.2742C22.1336 17.5125 22.076 17.7564 21.9349 17.9523C21.7939 18.1482 21.5808 18.2802 21.3426 18.3192Z" fill="black"/>
<path d="M7.70431 14.4038C7.21141 14.484 6.88778 15.0239 6.98262 15.6067C7.07753 16.19 7.55556 16.599 8.04846 16.5188C8.54177 16.4385 8.86547 15.899 8.77063 15.3162C8.67573 14.7329 8.19762 14.3235 7.70473 14.4037L7.70431 14.4038ZM7.95167 15.9239C7.81072 15.9468 7.6223 15.7826 7.57791 15.5098C7.5336 15.2375 7.66023 15.022 7.80118 14.9991C7.94254 14.9761 8.13137 15.1402 8.17569 15.4126C8.22008 15.6853 8.09344 15.9008 7.95167 15.9239Z" fill="black"/>
</g>
</g>
<defs>
<clipPath id="clip0_753_5223">
<rect width="20.58" height="21" fill="white" transform="translate(0.447266 3.78894) rotate(-9.24199)"/>
</clipPath>
</defs>
</svg>
