<svg width="73" height="56" viewBox="0 0 73 56" fill="none" xmlns="http://www.w3.org/2000/svg">
<path opacity="0.4" d="M52.4167 0.0215388C52.5313 0.021157 52.5313 0.021157 52.6483 0.0207676C52.9039 0.020026 53.1596 0.0198945 53.4152 0.0197665C53.5987 0.0193699 53.7822 0.0189395 53.9657 0.0184778C54.4639 0.0173552 54.962 0.016802 55.4602 0.0164212C55.7716 0.01617 56.083 0.0158184 56.3944 0.0154359C57.369 0.014265 58.3437 0.0134368 59.3184 0.0131059C60.4427 0.0127221 61.5671 0.0112189 62.6914 0.00873756C63.5611 0.00688511 64.4307 0.00602199 65.3004 0.00590753C65.8195 0.00581784 66.3387 0.00531335 66.8578 0.00378165C67.3463 0.00236846 67.8348 0.00218616 68.3232 0.00293702C68.5022 0.00300292 68.6811 0.00263217 68.86 0.00178428C69.105 0.000691669 69.3499 0.00119988 69.5949 0.00209109C69.6651 0.00140103 69.7352 0.000710969 69.8075 0C70.536 0.0061625 71.2116 0.157515 71.7479 0.673626C72.0422 1.00907 72.0612 1.33547 72.0572 1.77334C72.0108 2.23383 71.8382 2.65786 71.6807 3.09032C71.6422 3.19854 71.6038 3.30678 71.5655 3.41506C71.4381 3.77328 71.308 4.13045 71.1775 4.48754C71.1312 4.61463 71.0849 4.74172 71.0385 4.8688C70.767 5.61285 70.4926 6.35582 70.217 7.09837C70.0231 7.62106 69.8303 8.14418 69.6381 8.6675C69.6103 8.74291 69.5826 8.81833 69.5541 8.89604C69.3917 9.33769 69.3917 9.33769 69.2296 9.7794C69.1557 9.9806 69.0817 10.1818 69.0077 10.3829C68.9857 10.4429 68.9637 10.5029 68.9411 10.5646C68.7889 10.9777 68.7889 10.9777 68.6935 11.1685C67.7608 11.1685 66.828 11.1685 65.867 11.1685C66.1194 9.74098 66.405 8.33081 66.7359 6.91986C66.8732 6.33385 67.0078 5.74749 67.1297 5.15805C67.161 5.00754 67.161 5.00754 67.1929 4.854C67.2469 4.51326 67.2802 4.19942 67.1785 3.86656C67.0203 3.6556 66.8925 3.60903 66.6378 3.54536C66.3744 3.56116 66.1959 3.57269 65.9881 3.74109C65.6472 4.1545 65.594 4.80745 65.4942 5.31831C65.3563 6.01779 65.2112 6.71567 65.0644 7.41333C65.0216 7.61694 64.9791 7.8206 64.9365 8.02426C64.716 9.07507 64.4802 10.1221 64.2396 11.1685C63.5821 11.1705 62.9247 11.172 62.2673 11.1729C61.9621 11.1734 61.6568 11.174 61.3516 11.175C61.001 11.1761 60.6504 11.1765 60.2998 11.1769C60.1347 11.1775 60.1347 11.1775 59.9662 11.1782C59.865 11.1782 59.7639 11.1782 59.6596 11.1782C59.5253 11.1785 59.5253 11.1785 59.3882 11.1788C59.186 11.1685 59.186 11.1685 59.1004 11.0829C59.0765 10.9511 59.0577 10.8184 59.041 10.6855C59.0301 10.6003 59.0192 10.515 59.008 10.4271C58.9906 10.2866 58.9906 10.2866 58.9729 10.1433C58.9545 9.99801 58.9545 9.99801 58.9357 9.84974C58.8957 9.53277 58.8561 9.21573 58.8166 8.89869C58.7894 8.6823 58.7621 8.46592 58.7348 8.24954C58.6177 7.32005 58.502 6.39041 58.391 5.46018C58.3832 5.39461 58.3754 5.32904 58.3673 5.26149C58.3325 4.97 58.2982 4.67847 58.2646 4.38683C58.1866 3.36216 58.1866 3.36216 57.8156 2.43186C57.4746 2.32788 57.152 2.29256 56.8305 2.45328C56.5778 2.74811 56.6138 3.0113 56.6418 3.37907C56.7018 4.12466 56.7971 4.86495 56.8948 5.60639C56.9136 5.7516 56.9324 5.89681 56.9512 6.04202C57.0491 6.79558 57.1502 7.54867 57.2538 8.30146C57.2637 8.37378 57.2736 8.44609 57.2838 8.52059C57.3313 8.86676 57.3793 9.21286 57.428 9.55885C57.4453 9.68408 57.4627 9.80932 57.48 9.93456C57.4952 10.0429 57.5104 10.1513 57.5261 10.263C57.5586 10.5689 57.5586 10.5689 57.5586 11.1685C56.117 11.1685 54.6755 11.1685 53.1903 11.1685C52.1693 8.37256 52.1693 8.37256 51.8412 7.41582C51.4952 6.40842 51.1295 5.40814 50.7652 4.40724C50.7194 4.28127 50.7194 4.28127 50.6726 4.15276C50.5843 3.91023 50.4959 3.66773 50.4075 3.42524C50.3811 3.3526 50.3546 3.27995 50.3273 3.2051C50.3021 3.13599 50.2768 3.06687 50.2509 2.99566C50.2268 2.92976 50.2028 2.86387 50.1781 2.79598C50.1304 2.66719 50.0818 2.53878 50.0321 2.41076C49.8416 1.91919 49.7644 1.56447 49.9408 1.05606C50.2897 0.527078 50.7343 0.201714 51.3566 0.0734662C51.7122 0.0248569 52.0582 0.0211635 52.4167 0.0215388Z" fill="#01502E"/>
<path d="M54.2865 12.7625C54.3757 12.7619 54.3757 12.7619 54.4668 12.7613C54.6666 12.7603 54.8664 12.7611 55.0663 12.7619C55.2093 12.7615 55.3524 12.7611 55.4955 12.7605C55.8845 12.7593 56.2734 12.7598 56.6624 12.7606C57.069 12.7613 57.4756 12.7607 57.8822 12.7603C58.5652 12.7598 59.248 12.7604 59.9309 12.7616C60.721 12.763 61.5111 12.7626 62.3012 12.7612C62.979 12.76 63.6567 12.7598 64.3345 12.7605C64.7395 12.7609 65.1446 12.7609 65.5496 12.7601C65.9304 12.7594 66.3111 12.7599 66.6919 12.7614C66.8319 12.7617 66.9718 12.7616 67.1117 12.761C67.3024 12.7603 67.493 12.7612 67.6836 12.7625C67.7904 12.7626 67.8972 12.7627 68.0073 12.7628C68.2656 12.7951 68.2656 12.7951 68.4251 12.9149C68.7327 13.3478 68.6399 13.874 68.5627 14.376C68.3303 15.542 67.8563 16.6661 66.8951 17.4204C65.8232 18.1214 64.7884 18.3108 63.5302 18.3152C63.4594 18.3166 63.3887 18.318 63.3158 18.3194C63.2208 18.3197 63.2208 18.3197 63.1238 18.3199C62.9437 18.3499 62.9437 18.3499 62.8182 18.5025C62.6622 18.7658 62.6652 18.945 62.664 19.2504C62.6624 19.4187 62.6624 19.4187 62.6607 19.5904C62.6608 19.7145 62.6609 19.8387 62.6611 19.9628C62.6603 20.0937 62.6594 20.2245 62.6584 20.3554C62.6561 20.7105 62.6553 21.0657 62.6548 21.4208C62.654 21.792 62.6517 22.1632 62.6496 22.5344C62.6459 23.2372 62.6434 23.94 62.6415 24.6429C62.6391 25.4431 62.6354 26.2433 62.6315 27.0435C62.6235 28.6895 62.6174 30.3355 62.6125 31.9815C62.2146 31.9878 61.8168 31.9925 61.4189 31.9956C61.2836 31.9969 61.1483 31.9986 61.0129 32.0009C60.8184 32.004 60.6239 32.0054 60.4293 32.0066C60.3386 32.0086 60.3386 32.0086 60.246 32.0106C60.0075 32.0107 59.8277 32.0059 59.6192 31.8841C59.4879 31.6519 59.497 31.4678 59.4971 31.2017C59.4965 31.0923 59.4959 30.9829 59.4953 30.8701C59.496 30.7486 59.4967 30.6271 59.4973 30.5057C59.4971 30.3779 59.4968 30.2502 59.4964 30.1224C59.4957 29.8472 59.4957 29.5719 59.4964 29.2967C59.4974 28.8616 59.4963 28.4265 59.495 27.9914C59.4919 26.9106 59.4913 25.8298 59.4915 24.749C59.4917 23.9092 59.4911 23.0694 59.4881 22.2296C59.4867 21.797 59.4868 21.3644 59.4882 20.9317C59.4887 20.6627 59.4878 20.3936 59.4865 20.1245C59.4861 19.9997 59.4864 19.8748 59.4873 19.75C59.4884 19.5796 59.4873 19.4093 59.486 19.2389C59.486 19.0959 59.486 19.0959 59.4861 18.95C59.4334 18.6488 59.3393 18.5478 59.1007 18.3626C58.9007 18.315 58.9007 18.315 58.6845 18.3255C58.6037 18.3249 58.5229 18.3244 58.4396 18.3239C58.3539 18.3243 58.2682 18.3247 58.1799 18.3251C56.7722 18.2962 55.755 17.9816 54.6735 17.051C53.8327 16.0739 53.4349 15.0557 53.4261 13.7694C53.4244 13.7041 53.4226 13.6387 53.4208 13.5714C53.4175 13.0992 53.4175 13.0992 53.5414 12.9051C53.7876 12.7391 53.9916 12.7628 54.2865 12.7625Z" fill="#01502E"/>
<path opacity="0.4" d="M61.5423 33.664C61.6111 33.6641 61.6799 33.6642 61.7508 33.6643C62.8255 33.68 63.716 34.0746 64.4974 34.8096C65.5476 36.0397 65.7313 37.6082 65.6109 39.1779C65.4576 40.5266 65.0653 41.6653 64.0015 42.5579C63.5435 42.8767 62.9973 43.0707 62.4417 43.118C62.3878 43.1234 62.3339 43.1288 62.2784 43.1344C61.3734 43.1852 60.4732 42.8418 59.7864 42.2614C59.1152 41.6432 58.7069 40.8303 58.6572 39.9167C58.6739 39.5875 58.7405 39.3205 58.8389 39.0066C59.0287 38.3971 59.1104 37.8304 59.1163 37.1922C59.1183 37.0762 59.1203 36.9603 59.1225 36.8444C59.1255 36.6647 59.128 36.4851 59.1291 36.3054C59.1354 35.4793 59.1507 34.8458 59.765 34.2314C60.3628 33.8176 60.8108 33.6417 61.5423 33.664Z" fill="#01502E"/>
<path d="M57.4738 36.0078C57.7671 36.9502 57.5527 37.9986 57.2835 38.9165C56.9176 40.1903 57.2936 41.4656 57.7234 42.6794C57.8613 43.0744 57.9125 43.3881 57.9104 43.809C57.9101 43.9083 57.9099 44.0077 57.9096 44.1101C57.9085 44.2651 57.9085 44.2651 57.9074 44.4233C57.907 44.5279 57.9066 44.6326 57.9062 44.7404C57.9052 44.9987 57.9038 45.257 57.902 45.5153C57.3398 45.8353 56.7766 46.1535 56.2127 46.4705C55.9402 46.6242 55.6684 46.7794 55.3967 46.9346C55.229 47.0291 55.0613 47.1234 54.8935 47.2177C54.815 47.2631 54.7364 47.3084 54.6555 47.3551C54.5819 47.3961 54.5083 47.4371 54.4324 47.4793C54.3362 47.534 54.3362 47.534 54.238 47.5897C53.9967 47.6746 53.8607 47.6487 53.6194 47.571C53.4481 47.3997 53.4481 47.3997 53.427 47.2342C53.4272 47.1661 53.4273 47.098 53.4275 47.0279C53.4272 46.9499 53.427 46.8718 53.4268 46.7913C53.4274 46.7055 53.428 46.6196 53.4286 46.5311C53.4286 46.4408 53.4286 46.3506 53.4285 46.2576C53.4287 45.9582 53.43 45.6588 53.4313 45.3594C53.4317 45.1523 53.4319 44.9451 53.4321 44.738C53.4327 44.1919 53.4344 43.6458 53.4363 43.0997C53.4381 42.5429 53.4388 41.986 53.4397 41.4291C53.4415 40.3358 53.4444 39.2425 53.4481 38.1491C53.502 38.1198 53.5559 38.0905 53.6114 38.0603C53.8584 37.9258 54.1053 37.7913 54.3522 37.6567C54.437 37.6106 54.5217 37.5644 54.6091 37.5169C55.3044 37.138 55.9932 36.7491 56.6791 36.3534C56.759 36.3078 56.8388 36.2622 56.921 36.2153C56.9907 36.1751 57.0603 36.135 57.1321 36.0937C57.3025 36.0078 57.3025 36.0078 57.4738 36.0078Z" fill="#01502E"/>
<path opacity="0.4" d="M12.934 0.976562C13.0976 1.04248 13.0976 1.04248 13.2766 1.14787C13.3769 1.40526 13.457 1.65401 13.5335 1.91875C13.9337 3.23726 14.4772 4.4658 15.6973 5.22443C16.4654 5.61892 17.2939 5.88177 18.1367 6.06089C18.3301 6.11577 18.3301 6.11577 18.5014 6.28707C18.4854 6.45838 18.4854 6.45838 18.4158 6.62969C18.1641 6.79746 18.0837 6.8223 17.8001 6.85988C16.6344 7.07835 15.377 7.71506 14.6229 8.63986C14.0844 9.43294 13.736 10.2957 13.4947 11.22C13.3773 11.6681 13.3773 11.6681 13.1909 11.8545C12.9821 11.8599 12.9821 11.8599 12.7627 11.7689C12.6059 11.4929 12.5227 11.2285 12.4351 10.9241C11.99 9.38604 11.3452 8.28541 9.93434 7.48877C9.20555 7.10963 8.42483 6.88114 7.62346 6.71534C7.56692 6.65881 7.51039 6.60228 7.45215 6.54403C7.46787 6.36971 7.46787 6.36971 7.5378 6.20142C7.86347 6.04856 8.19236 5.95354 8.5372 5.85144C9.9257 5.44574 9.9257 5.44574 11.0496 4.574C11.1061 4.574 11.1627 4.574 11.2209 4.574C11.2545 4.50213 11.2545 4.50213 11.2888 4.4288C11.4029 4.21105 11.537 4.01656 11.6759 3.81383C12.1633 3.05394 12.4115 2.20323 12.6108 1.32854C12.677 1.14787 12.677 1.14787 12.934 0.976562Z" fill="#01502E"/>
<path d="M59.529 43.9746C59.626 44.0258 59.626 44.0258 59.725 44.078C60.6572 44.5266 61.5899 44.643 62.6125 44.7455C62.6185 46.0291 62.623 47.3127 62.6258 48.5964C62.6271 49.1924 62.6289 49.7885 62.6319 50.3846C62.6347 50.9599 62.6362 51.5353 62.6369 52.1106C62.6373 52.33 62.6383 52.5494 62.6397 52.7688C62.6415 53.0763 62.6418 53.3839 62.6417 53.6914C62.6426 53.7819 62.6435 53.8723 62.6445 53.9655C62.642 54.5488 62.5998 55.0798 62.2053 55.5428C62.1542 55.5818 62.1031 55.6208 62.0504 55.6609C61.999 55.7015 61.9477 55.742 61.8948 55.7837C61.4935 56.0632 61.0283 56.0088 60.5568 55.9661C60.0935 55.7602 59.7623 55.3854 59.529 54.9382C59.458 54.5758 59.4638 54.2223 59.4706 53.854C59.4705 53.747 59.4705 53.64 59.4704 53.5297C59.4707 53.238 59.4733 52.9465 59.4769 52.6549C59.4801 52.3494 59.4804 52.044 59.481 51.7385C59.4826 51.161 59.4868 50.5834 59.492 50.0059C59.4977 49.348 59.5005 48.6901 59.5031 48.0322C59.5085 46.6797 59.5175 45.3271 59.529 43.9746Z" fill="#01502E"/>
<path fillRule="evenodd" clipRule="evenodd" d="M28.4532 8.83448C29.721 7.73211 31.1208 7.03574 32.6448 8.11713C33.1623 8.5149 33.6665 8.93027 34.1712 9.34405C34.4886 9.60361 34.8105 9.85688 35.1341 10.1086C35.5698 10.448 35.9931 10.7994 36.4127 11.1585C36.7863 11.4768 37.1701 11.7802 37.5574 12.0814C38.0352 12.4542 38.5023 12.8395 38.9692 13.2256C39.3493 13.5399 39.7317 13.8507 40.1177 14.1577C40.4118 14.3928 40.7039 14.6302 40.996 14.8677C41.0544 14.9152 41.1129 14.9627 41.173 15.0116C41.4702 15.2532 41.7672 15.4951 42.064 15.7373C42.1791 15.8311 42.2942 15.9249 42.4093 16.0187C42.4661 16.0649 42.5229 16.1113 42.5814 16.1589C42.949 16.4575 43.3203 16.7505 43.6941 17.0411C44.1599 17.4038 44.6098 17.7822 45.056 18.1685C45.4083 18.4731 45.7672 18.7675 46.1326 19.0563C46.3513 19.23 46.5673 19.4066 46.783 19.584C47.1607 19.8939 47.5413 20.2 47.9232 20.5048C48.4548 20.929 48.9824 21.3577 49.5078 21.7896C49.6648 21.9181 49.8219 22.0466 49.9789 22.175C53.7476 25.2585 53.7477 25.2585 53.9839 25.4519C54.1385 25.5783 54.2933 25.7046 54.4483 25.8307C54.6032 25.9568 54.7578 26.0834 54.912 26.2104C55.0914 26.3577 55.2716 26.5036 55.4527 26.6487C56.637 27.609 56.637 27.6091 56.7884 28.3849C56.8323 28.8967 56.8366 29.3221 56.5314 29.7553C56.085 30.2352 55.6608 30.4192 54.9958 30.4625C54.8749 30.4637 54.7539 30.4641 54.633 30.464C54.5003 30.4657 54.3675 30.4675 54.2348 30.4693C54.0281 30.4713 53.8213 30.4727 53.6146 30.4732C53.4133 30.474 53.2122 30.4769 53.0109 30.48C52.9187 30.4794 52.9187 30.4794 52.8246 30.4788C52.5486 30.4842 52.3499 30.5182 52.1039 30.6454C51.8015 30.987 51.8471 31.3048 51.8525 31.747C51.8519 31.8373 51.8514 31.9277 51.8507 32.0208C51.8493 32.3245 51.8508 32.6282 51.8523 32.9319C51.8519 33.1493 51.8513 33.3667 51.8505 33.584C51.8492 34.0527 51.8491 34.5213 51.8502 34.99C51.8518 35.6684 51.8509 36.3467 51.8493 37.0251C51.8468 38.1269 51.8461 39.2287 51.8466 40.3305C51.8472 41.3989 51.8472 42.4673 51.8465 43.5356C51.8464 43.6014 51.8464 43.6671 51.8463 43.7348C51.8458 44.453 51.845 45.1712 51.844 45.8894C51.8439 45.9525 51.8438 46.0157 51.8437 46.0808C51.8433 46.3335 51.843 46.5862 51.8426 46.8388C51.8413 47.5777 51.8408 48.3166 51.8415 49.0554C51.842 49.5742 51.8417 50.0929 51.8411 50.6117C51.841 50.8242 51.8413 51.0368 51.8418 51.2493C51.8425 51.5397 51.8421 51.8301 51.8415 52.1205C51.8419 52.2043 51.8423 52.2881 51.8428 52.3745C51.8382 53.3449 51.6332 54.1081 50.9853 54.8528C50.1067 55.6966 49.0699 55.7709 47.9176 55.7627C47.7666 55.7632 47.6156 55.7639 47.4647 55.7648C47.0522 55.7665 46.6397 55.7657 46.2272 55.7643C45.7814 55.7634 45.3355 55.7648 44.8897 55.766C44.0173 55.7679 43.1449 55.7675 42.2725 55.7663C41.5632 55.7653 40.8539 55.7651 40.1447 55.7656C39.9932 55.7657 39.9931 55.7657 39.8385 55.7658C39.6332 55.766 39.4279 55.7661 39.2226 55.7663C37.2987 55.7675 35.3748 55.766 33.4509 55.7637C31.8012 55.7618 30.1515 55.7622 28.5018 55.7642C26.5848 55.7665 24.6678 55.7673 22.7508 55.766C22.5462 55.7659 22.3417 55.7657 22.1371 55.7656C22.0365 55.7655 21.9358 55.7655 21.8322 55.7654C21.1241 55.765 20.4159 55.7657 19.7078 55.7667C18.8444 55.7679 17.9811 55.7675 17.1177 55.7653C16.6775 55.7641 16.2373 55.7637 15.797 55.7652C15.3935 55.7665 14.99 55.7657 14.5865 55.7634C14.4411 55.7629 14.2956 55.7632 14.1501 55.7642C13.0503 55.7715 12.0182 55.6512 11.1903 54.8407C10.4943 54.0488 10.3241 53.1358 10.333 52.1037C10.3327 52.0129 10.3325 51.9222 10.3322 51.8287C10.3316 51.5272 10.3328 51.2258 10.334 50.9243C10.334 50.7072 10.3338 50.49 10.3335 50.2728C10.333 49.8065 10.3333 49.3403 10.3343 48.874C10.3356 48.1994 10.3351 47.5247 10.3341 46.8501C10.3325 45.7547 10.3317 44.6594 10.3318 43.564C10.3318 43.4986 10.3318 43.4331 10.3318 43.3657C10.3318 42.6348 10.3321 41.9039 10.3327 41.1731C10.3328 41.1073 10.3328 41.0414 10.3329 40.9737C10.3329 40.9079 10.333 40.8421 10.333 40.7744C10.3331 40.6418 10.3333 40.5092 10.3334 40.3766C10.3334 40.2783 10.3335 40.2783 10.3335 40.178C10.3344 39.0859 10.3336 37.9938 10.3314 36.9017C10.3302 36.2286 10.3305 35.5555 10.3324 34.8824C10.3339 34.3673 10.333 33.8522 10.3314 33.337C10.3311 33.1256 10.3316 32.9142 10.3328 32.7027C10.3343 32.4147 10.3333 32.1267 10.3316 31.8386C10.3327 31.7545 10.3338 31.6704 10.3349 31.5837C10.3298 31.1916 10.3206 31.0111 10.0811 30.6885C9.77714 30.4748 9.51984 30.4667 9.16107 30.4717C9.09507 30.4708 9.02907 30.4699 8.96107 30.469C8.75067 30.4664 8.54038 30.4667 8.32997 30.4673C6.10403 30.4592 6.10403 30.4592 5.44753 29.8222C5.11827 29.4551 5.10088 29.0872 5.11295 28.6094C5.2376 27.5507 6.10729 26.9783 6.88022 26.3589C7.15749 26.1361 7.43304 25.9112 7.70898 25.6868C7.82764 25.5904 7.94631 25.4941 8.06498 25.3977C8.40719 25.1197 8.74841 24.8404 9.08947 24.5609C9.44714 24.2687 9.8061 23.978 10.1648 23.6871C10.5937 23.3388 11.0199 22.9875 11.4456 22.6354C11.9349 22.2309 12.4298 21.835 12.9308 21.4452C13.3224 21.1391 13.7023 20.8205 14.0802 20.4977C14.422 20.2062 14.7698 19.9237 15.1217 19.6445C15.5092 19.3358 15.8913 19.0203 16.2743 18.706C16.5881 18.4488 16.9022 18.1918 17.2165 17.9352L17.3722 17.8079C17.9781 17.313 18.5854 16.8206 19.2026 16.3399C19.6382 16.0004 20.0616 15.6491 20.4812 15.29C20.8071 15.0123 21.1398 14.7451 21.4778 14.4823C22.1258 13.9781 22.758 13.4555 23.3904 12.932C23.9614 12.4597 24.536 11.9919 25.1154 11.5299C25.294 11.3874 25.4724 11.2446 25.6507 11.1016C25.7586 11.0151 25.8666 10.9285 25.9746 10.842C26.0293 10.7981 26.0842 10.7542 26.1406 10.7089C26.4076 10.4953 26.6752 10.2826 26.9452 10.0728C27.0446 9.9955 27.1439 9.9182 27.2433 9.84091C27.2922 9.80287 27.3411 9.76483 27.3915 9.72564C27.7558 9.43991 28.105 9.13946 28.4532 8.83448ZM37.2688 38.3387C36.9978 38.1832 36.7909 38.213 36.4899 38.2588C36.2027 38.3617 36.0896 38.5316 35.9281 38.7847C35.4984 39.5083 35.0334 40.0457 34.3365 40.5209C32.8971 41.3893 31.3206 41.5354 29.6951 41.2275C28.467 40.9209 27.3415 40.2882 26.6598 39.204C26.4532 38.8631 26.2799 38.5597 25.9531 38.3207C25.6549 38.2314 25.3798 38.2039 25.0752 38.2885C24.8166 38.4917 24.6232 38.6669 24.5432 38.9979C24.4885 39.7176 24.863 40.3264 25.2853 40.8812C26.6206 42.4211 28.4374 43.2479 30.4423 43.4358L30.7497 43.4599C30.8869 43.4716 31.0244 43.4809 31.1619 43.4866C32.9631 43.4381 34.9075 42.9142 36.2433 41.6528L36.4029 41.4898C36.5365 41.3539 36.6684 41.2164 36.799 41.0776C37.3695 40.4252 37.8131 39.8201 37.7733 38.9202C37.6496 38.6728 37.4787 38.5166 37.2688 38.3387ZM23.4799 29.2575C22.6503 29.4731 22.0765 29.9118 21.5848 30.6119C21.2058 31.3014 21.1345 32.0687 21.2733 32.8405C21.5553 33.7175 22.012 34.41 22.8385 34.841C23.5786 35.145 24.3281 35.1862 25.0799 34.8979C25.8718 34.523 26.3236 34.0676 26.6651 33.2671C26.9081 32.5512 26.97 31.6403 26.6411 30.9397L26.5527 30.7832C26.4028 30.5044 26.2438 30.254 26.0388 30.0123C25.4815 29.5211 24.793 29.2342 24.0474 29.22C23.8582 29.2326 23.6691 29.2451 23.4799 29.2575ZM40.1054 29.6118C38.9893 28.948 37.5312 29.123 36.6223 30.0551L36.4885 30.2692C36.1208 30.7595 35.9105 31.2259 35.8702 31.8391C35.8617 32.7914 36.0586 33.5969 36.7328 34.3067C37.4426 34.9223 38.1523 35.0524 39.0598 35.0233C39.7606 34.9643 40.3848 34.5628 40.8341 34.0346C41.3974 33.2454 41.5277 32.4556 41.435 31.5059C41.1885 30.7048 40.7937 30.1029 40.1054 29.6118Z" fill="#01502E"/>
<path opacity="0.4" d="M3.6831 14.8516C3.85294 14.8705 3.85294 14.8705 4.02571 14.9372C4.11021 15.1671 4.17265 15.3803 4.22914 15.6171C4.47494 16.5347 4.82792 17.3167 5.65312 17.8494C6.04473 18.0434 6.44431 18.2072 6.85227 18.3634C6.92801 18.3927 7.00376 18.4221 7.08179 18.4524C7.23309 18.51 7.38518 18.5655 7.5375 18.6203C7.50923 18.7334 7.48097 18.8464 7.45184 18.9629C7.35545 18.9833 7.35545 18.9833 7.25712 19.0041C6.21528 19.2416 5.24186 19.6373 4.64335 20.5729C4.35152 21.1278 4.16274 21.6928 4.02571 22.3034C3.86511 22.3569 3.86511 22.3569 3.6831 22.3891C3.45738 22.1633 3.44217 21.9759 3.36725 21.6664C3.11536 20.7658 2.73665 20.106 1.93657 19.5993C1.34271 19.2739 0.748252 19.0912 0.0856534 18.9629C0.03212 18.8023 0.03212 18.8023 0 18.6203C0.212972 18.4073 0.349741 18.3981 0.6424 18.3366C1.53338 18.1224 2.37563 17.7324 2.88545 16.9394C3.18832 16.37 3.37106 15.7939 3.5322 15.1718C3.59744 14.9372 3.59744 14.9372 3.6831 14.8516Z" fill="#01502E"/>
</svg>
