<svg width="57" height="58" viewBox="0 0 57 58" fill="none" xmlns="http://www.w3.org/2000/svg">
<g clip-path="url(#clip0_753_5207)">
<mask id="mask0_753_5207" style="mask-type:luminance" maskUnits="userSpaceOnUse" x="0" y="1" width="57" height="56">
<path d="M7.72168 1.27344L56.2266 8.22151L49.2785 56.7264L0.773608 49.7783L7.72168 1.27344Z" fill="white"/>
</mask>
<g mask="url(#mask0_753_5207)">
<path d="M24.6139 50.597C23.6478 50.4586 22.9778 49.5646 23.116 48.5994L24.1355 41.4821C24.2019 41.0187 24.4497 40.6007 24.8242 40.3199C25.1988 40.0392 25.6696 39.9188 26.133 39.9852C26.5964 40.0516 27.0144 40.2993 27.2951 40.6739C27.5758 41.0485 27.6963 41.5192 27.6299 41.9826L26.6104 49.1C26.4721 50.0651 25.5781 50.7351 24.6139 50.597ZM11.2896 40.9401C10.3245 40.8018 9.65445 39.9078 9.7927 38.9426L10.8122 31.8253C10.8786 31.3619 11.1263 30.9439 11.5009 30.6632C11.8755 30.3824 12.3463 30.262 12.8097 30.3284C13.273 30.3948 13.6911 30.6425 13.9718 31.0171C14.2525 31.3917 14.3729 31.8625 14.3066 32.3258L13.287 39.4432C13.1489 40.4073 12.2547 41.0783 11.2896 40.9401ZM17.4181 46.5356C16.4529 46.3974 15.7829 45.5033 15.9213 44.5372L16.6805 39.2373C16.7469 38.7739 16.9946 38.3559 17.3692 38.0752C17.7438 37.7944 18.2146 37.674 18.678 37.7404C19.1413 37.8068 19.5594 38.0545 19.8401 38.4291C20.1208 38.8037 20.2412 39.2745 20.1749 39.7378L19.4157 45.0377C19.2774 46.0029 18.3832 46.6739 17.4181 46.5356ZM9.95287 50.2718C8.98773 50.1336 8.31773 49.2395 8.45598 48.2744L8.77432 46.0521C8.84069 45.5887 9.08843 45.1707 9.46302 44.8899C9.83761 44.6092 10.3084 44.4888 10.7718 44.5552C11.2351 44.6216 11.6532 44.8693 11.9339 45.2439C12.2146 45.6185 12.335 46.0892 12.2686 46.5526L11.9503 48.7749C11.8122 49.7391 10.918 50.4101 9.95287 50.2718Z" fill="#B0F0EF"/>
<path d="M43.4299 51.0275L36.0206 49.9661L40.0689 21.7046C40.6578 17.5936 37.7921 13.7696 33.68 13.1806C29.569 12.5917 25.7449 15.4584 25.156 19.5694L24.5414 23.8596L17.1321 22.7983L17.7466 18.5081C18.9207 10.3118 26.5449 4.59811 34.7412 5.77219C42.9386 6.94642 48.6522 14.5706 47.4781 22.767L43.4299 51.0275Z" fill="#91D4F2"/>
<path d="M25.1554 19.5694C25.3207 18.4152 25.7409 17.3581 26.3519 16.4495C24.7122 16.8309 21.9591 17.1366 18.2038 16.3986C18.0011 17.09 17.8481 17.7949 17.746 18.508L17.1315 22.7982L24.5409 23.8596L25.1554 19.5694Z" fill="#59C2E8"/>
<path d="M25.4108 21.9809L16.6394 20.7244C15.985 20.6307 15.3186 20.6668 14.6782 20.8306C14.0378 20.9944 13.436 21.2828 12.907 21.6793C12.3781 22.0758 11.9324 22.5726 11.5955 23.1413C11.2586 23.71 11.037 24.3395 10.9434 24.9939L10.1579 30.4779L28.8936 33.1617L29.6792 27.6777C29.8685 26.3563 29.5251 25.0139 28.7246 23.9457C27.9241 22.8776 26.7322 22.1702 25.4108 21.9809Z" fill="#C2EAFB"/>
<path d="M25.4092 21.9807L19.749 21.1699C20.4035 21.2635 21.0331 21.4852 21.6018 21.8222C22.1706 22.1592 22.6674 22.6049 23.0639 23.1339C23.4604 23.663 23.7487 24.2649 23.9125 24.9055C24.0762 25.546 24.1122 26.2125 24.0183 26.8669L23.2328 32.3509L28.893 33.1617L29.6786 27.6777C29.7723 27.0233 29.7362 26.3569 29.5724 25.7165C29.4085 25.0761 29.1201 24.4743 28.7237 23.9453C28.3272 23.4164 27.8304 22.9707 27.2617 22.6338C26.693 22.2969 26.0636 22.0743 25.4092 21.9807Z" fill="#91D4F2"/>
<path d="M28.7231 36.8933L9.4597 34.1339C8.77737 34.0361 8.16181 33.6713 7.74844 33.1198C7.33507 32.5682 7.15775 31.8749 7.25549 31.1926C7.35323 30.5103 7.71803 29.8947 8.26962 29.4814C8.82122 29.068 9.51443 28.8907 10.1968 28.9884L29.4601 31.7478C30.1425 31.8455 30.758 32.2103 31.1714 32.7619C31.5848 33.3135 31.7621 34.0067 31.6643 34.6891C31.5666 35.3714 31.2018 35.9869 30.6502 36.4003C30.0986 36.8137 29.4054 36.991 28.7231 36.8933Z" fill="#99B2E9"/>
<path d="M29.4599 31.7478L22.5762 30.7617C23.2585 30.8595 23.8741 31.2243 24.2874 31.7758C24.7008 32.3274 24.8781 33.0207 24.7804 33.703C24.6826 34.3853 24.3178 35.0009 23.7663 35.4143C23.2147 35.8276 22.5214 36.0049 21.8391 35.9072L28.7228 36.8933C29.4052 36.991 30.0984 36.8137 30.65 36.4003C31.2016 35.9869 31.5664 35.3714 31.6641 34.689C31.7619 34.0067 31.5845 33.3135 31.1712 32.7619C30.7578 32.2103 30.1422 31.8455 29.4599 31.7478Z" fill="#7293DF"/>
<path d="M41.6288 54.1911L36.8615 53.5082C36.1379 53.4046 35.4852 53.0177 35.0468 52.4328C34.6085 51.8479 34.4205 51.1128 34.5241 50.3893L35.5977 42.8948L45.8213 44.3593L44.7478 51.8538C44.6441 52.5773 44.2573 53.2301 43.6724 53.6684C43.0874 54.1067 42.3524 54.2948 41.6288 54.1911Z" fill="#59C2E8"/>
<path d="M44.2185 46.4086L36.5607 45.3117C35.8455 45.2092 35.2004 44.8269 34.7671 44.2488C34.3339 43.6706 34.148 42.9441 34.2505 42.2289C34.3529 41.5138 34.7352 40.8686 35.3134 40.4354C35.8915 40.0021 36.618 39.8163 37.3332 39.9187L44.991 41.0157C45.7062 41.1181 46.3513 41.5004 46.7846 42.0786C47.2178 42.6567 47.4037 43.3833 47.3012 44.0984C47.1988 44.8136 46.8165 45.4587 46.2383 45.892C45.6602 46.3252 44.9337 46.5111 44.2185 46.4086Z" fill="#7293DF"/>
<path d="M26.2339 39.2744C25.5821 39.1819 24.9203 39.3516 24.3935 39.7464C23.8667 40.1411 23.518 40.7287 23.4239 41.3803L22.4044 48.4976C22.3115 49.1494 22.4812 49.8114 22.876 50.3382C23.2708 50.8651 23.8586 51.2137 24.5102 51.3076C25.162 51.4004 25.824 51.2308 26.3508 50.836C26.8777 50.4412 27.2263 49.8534 27.3202 49.2018L28.3397 42.0844C28.4325 41.4326 28.2629 40.7706 27.8681 40.2438C27.4733 39.7169 26.8855 39.3683 26.2339 39.2744ZM25.8997 48.9983C25.8528 49.2666 25.7033 49.506 25.4828 49.666C25.2624 49.8259 24.9884 49.8937 24.7188 49.8551C24.4492 49.8165 24.2052 49.6745 24.0385 49.4591C23.8719 49.2437 23.7956 48.9719 23.8259 48.7012L24.8454 41.5839C24.9273 41.0117 25.4592 40.6131 26.0304 40.6949C26.6026 40.7769 27.0012 41.3088 26.9192 41.8809L25.8997 48.9983ZM18.7789 37.0296C18.1271 36.9368 17.4651 37.1064 16.9382 37.5013C16.4114 37.8961 16.0628 38.4838 15.9689 39.1355L15.2095 44.4364C15.1173 45.088 15.2872 45.7496 15.6819 46.2762C16.0767 46.8027 16.6642 47.1513 17.3155 47.2454C17.9671 47.3379 18.6288 47.1683 19.1555 46.7737C19.6822 46.3792 20.031 45.7918 20.1254 45.1405L20.8847 39.8396C20.9773 39.1879 20.8075 38.526 20.4128 37.9993C20.018 37.4725 19.4304 37.1238 18.7789 37.0296ZM18.7039 44.9369C18.654 45.2023 18.5035 45.4381 18.284 45.5953C18.0644 45.7525 17.7926 45.8188 17.5253 45.7806C17.2581 45.7423 17.0159 45.6023 16.8492 45.3898C16.6826 45.1773 16.6045 44.9087 16.631 44.64L17.3904 39.3391C17.4403 39.0737 17.5907 38.8379 17.8103 38.6807C18.0298 38.5235 18.3016 38.4572 18.5689 38.4955C18.8362 38.5337 19.0784 38.6737 19.245 38.8862C19.4116 39.0987 19.4898 39.3673 19.4632 39.636L18.7039 44.9369ZM10.8727 43.8444C10.2209 43.7519 9.55906 43.9216 9.03228 44.3164C8.5055 44.7111 8.1568 45.2987 8.06267 45.9503L7.74434 48.1726C7.65206 48.8242 7.82194 49.4858 8.21671 50.0124C8.61149 50.5389 9.19895 50.8875 9.85031 50.9816C10.5019 51.0741 11.1636 50.9045 11.6903 50.5099C12.217 50.1154 12.5658 49.5281 12.6602 48.8767L12.9785 46.6544C13.0711 46.0027 12.9013 45.3408 12.5066 44.814C12.1118 44.2873 11.5242 43.9386 10.8727 43.8444ZM11.2387 48.6731C11.1887 48.9385 11.0383 49.1743 10.8188 49.3315C10.5992 49.4887 10.3274 49.555 10.0601 49.5168C9.79284 49.4785 9.55064 49.3385 9.38403 49.126C9.21741 48.9135 9.13925 48.6449 9.16583 48.3762L9.48416 46.1539C9.53409 45.8885 9.68451 45.6527 9.90408 45.4955C10.1236 45.3383 10.3954 45.2719 10.6627 45.3102C10.93 45.3485 11.1722 45.4885 11.3388 45.701C11.5054 45.9135 11.5836 46.1821 11.557 46.4508L11.2387 48.6731Z" fill="black"/>
<path d="M48.0121 44.2003C48.1258 43.3985 47.9536 42.5822 47.5256 41.8947C47.0976 41.2072 46.4412 40.6924 45.6716 40.4404L48.1886 22.8688C48.5502 20.3445 48.2889 17.7472 47.4322 15.3566C47.4023 15.2655 47.3544 15.1813 47.2914 15.1089C47.2284 15.0366 47.1516 14.9777 47.0654 14.9355C46.9792 14.8934 46.8855 14.869 46.7897 14.8637C46.694 14.8584 46.5981 14.8723 46.5078 14.9047C46.4175 14.937 46.3346 14.9871 46.264 15.0521C46.1934 15.117 46.1365 15.1954 46.0967 15.2827C46.0569 15.3699 46.035 15.4643 46.0323 15.5602C46.0296 15.6561 46.0461 15.7515 46.0809 15.8409C46.8598 18.0263 47.0953 20.3684 46.7672 22.6652L44.2575 40.1853L38.2696 39.3276L40.7794 21.8064C41.4243 17.3044 38.2856 13.115 33.7826 12.47C29.2786 11.8248 25.09 14.9646 24.4452 19.4666L24.2133 21.0851L18.2254 20.2274L18.4571 18.6099C19.5751 10.8056 26.835 5.36402 34.6403 6.48209C38.8355 7.08303 42.5277 9.50302 44.7684 13.1203C44.8686 13.282 45.029 13.3973 45.2142 13.4408C45.3994 13.4843 45.5943 13.4524 45.756 13.3522C45.9177 13.252 46.033 13.0916 46.0765 12.9064C46.12 12.7212 46.0881 12.5263 45.9879 12.3646C44.7793 10.405 43.1547 8.73508 41.2291 7.47308C39.3034 6.21109 37.1239 5.38787 34.8448 5.06173C26.2545 3.83121 18.2669 9.81808 17.0365 18.4074L16.8048 20.0249C16.8048 20.0249 11.0515 19.1725 10.2322 24.8921L9.75153 28.2478C8.96715 28.2666 8.21475 28.5625 7.62775 29.0831C7.04076 29.6037 6.65711 30.3154 6.54485 31.0919C6.07522 34.3704 9.64818 34.8863 9.64818 34.8863L9.08155 38.8419C8.98931 39.4933 9.15906 40.1548 9.55363 40.6813C9.9482 41.2078 10.5354 41.5564 11.1865 41.6508C11.8382 41.7436 12.5 41.5741 13.0268 41.1794C13.5536 40.7848 13.9023 40.1973 13.9964 39.5459L14.563 35.5903L28.6225 37.6042C29.4929 37.7279 30.3768 37.5012 31.0803 36.974C31.7838 36.4468 32.2495 35.662 32.3752 34.7919C32.4901 33.9825 32.3023 33.1592 31.848 32.4795C31.3936 31.7999 30.7045 31.3117 29.9126 31.1085L30.3893 27.7805C30.6008 26.2923 30.2217 24.7805 29.3331 23.5682C28.4446 22.3558 27.117 21.5391 25.6342 21.2927L25.8664 19.6722C26.1247 17.884 27.0817 16.2712 28.5276 15.1877C29.9734 14.1041 31.79 13.6383 33.5788 13.8924C35.367 14.1507 36.9797 15.1078 38.063 16.5537C39.1464 17.9995 39.612 19.8161 39.3576 21.6048L36.8407 39.1754C36.164 39.1958 35.5083 39.4154 34.9558 39.8068C34.4033 40.1981 33.9786 40.7438 33.7349 41.3754C33.4911 42.0071 33.4392 42.6966 33.5856 43.3576C33.732 44.0187 34.0702 44.6218 34.5578 45.0915L33.8134 50.2885C33.6841 51.2002 33.9217 52.126 34.474 52.8628C35.0264 53.5996 35.8484 54.0873 36.7598 54.219L41.5261 54.9017C42.438 55.0313 43.3641 54.7938 44.1011 54.2415C44.8381 53.6892 45.326 52.867 45.4576 51.9554L46.2021 46.7585C46.6849 46.5059 47.1007 46.1423 47.4154 45.6975C47.7301 45.2528 47.9346 44.7396 48.0121 44.2003ZM12.576 39.3414C12.5291 39.6097 12.3796 39.8492 12.1592 40.0091C11.9387 40.1691 11.6647 40.2369 11.3951 40.1983C11.1255 40.1597 10.8815 40.0176 10.7149 39.8022C10.5482 39.5868 10.4719 39.315 10.5022 39.0444L11.0688 35.0888L13.1426 35.3858L12.576 39.3414ZM28.967 27.5758L28.493 30.885L15.6263 29.0419C15.5313 29.0247 15.4338 29.0267 15.3396 29.048C15.2455 29.0693 15.1566 29.1094 15.0783 29.1659C14.9999 29.2223 14.9338 29.294 14.8838 29.3766C14.8338 29.4591 14.801 29.551 14.7873 29.6465C14.7736 29.7421 14.7793 29.8395 14.8041 29.9328C14.8289 30.0261 14.8723 30.1134 14.9316 30.1896C14.9909 30.2657 15.065 30.3292 15.1494 30.376C15.2338 30.4229 15.3268 30.4523 15.4228 30.4624L29.3596 32.4588C29.8376 32.5469 30.2631 32.8165 30.5468 33.2113C30.8305 33.606 30.9505 34.0953 30.8815 34.5765C30.8126 35.0577 30.5601 35.4936 30.177 35.7928C29.7939 36.092 29.3098 36.2314 28.8263 36.1818L9.56091 33.4221C9.06769 33.3506 8.62292 33.0866 8.32405 32.6878C8.02518 32.289 7.8966 31.788 7.96648 31.2945C8.11353 30.268 9.06755 29.553 10.0941 29.7001L12.351 30.0234C12.5395 30.0504 12.731 30.0014 12.8834 29.8872C13.0358 29.773 13.1366 29.603 13.1636 29.4145C13.1906 29.226 13.1416 29.0344 13.0274 28.8821C12.9132 28.7297 12.7432 28.6289 12.5547 28.6019L11.1787 28.4048L11.6527 25.0956C11.816 23.9629 12.4221 22.9414 13.3378 22.2551C14.2536 21.5689 15.4042 21.274 16.5371 21.4352L25.3076 22.6915C26.4402 22.8548 27.4618 23.4609 28.148 24.3766C28.8343 25.2923 29.1282 26.4428 28.967 27.5758ZM37.2295 40.6293L44.8883 41.7263C45.9832 41.8832 46.7465 42.9017 46.5896 43.9965C46.5134 44.5229 46.2317 44.9976 45.8062 45.3167C45.3806 45.6358 44.846 45.7732 44.3193 45.6988L36.6615 44.6019C35.5657 44.4449 34.8024 43.4264 34.9593 42.3305C35.1162 41.2357 36.1337 40.4723 37.2295 40.6293ZM44.0352 51.7517C43.9583 52.2867 43.6722 52.7693 43.2397 53.0936C42.8072 53.4178 42.2638 53.5572 41.7286 53.4811L36.9623 52.7983C36.4273 52.7212 35.9448 52.4348 35.6208 52.0022C35.2967 51.5696 35.1576 51.026 35.234 50.4909L35.8928 45.8919C36.0744 45.9502 44.5043 47.1578 44.694 47.1526L44.0352 51.7517Z" fill="black"/>
</g>
</g>
<defs>
<clipPath id="clip0_753_5207">
<rect width="49" height="50" fill="white" transform="translate(7.79297 0.778564) rotate(8.15187)"/>
</clipPath>
</defs>
</svg>
