<svg width="56" height="56" viewBox="0 0 56 56" fill="none" xmlns="http://www.w3.org/2000/svg">
<mask id="mask0_211_682" style="mask-type:alpha" maskUnits="userSpaceOnUse" x="4" y="5" width="48" height="47">
<path d="M24.3779 5.32715C38.5411 2.99384 50.8383 13.4239 51.6318 26.957C52.4018 40.0704 41.4814 51.667 28.3447 51.667C24.0514 51.667 20.0147 50.5007 16.5381 48.4707L14.9912 48.8955L7.62207 41.833L8.11523 40.001C5.5719 35.591 4.40533 30.2473 5.29199 24.6006C6.80875 14.8474 14.6248 6.93721 24.3779 5.32715ZM13.7188 49.2461L8.9082 50.5703C7.18154 51.0603 5.57142 49.4736 6.03809 47.7236L7.28613 43.0811L13.7188 49.2461Z" fill="#01502E"/>
</mask>
<g mask="url(#mask0_211_682)">
<rect x="-9.35156" y="25.5156" width="47.6998" height="55.7122" transform="rotate(-46.1114 -9.35156 25.5156)" fill="#01502E"/>
</g>
<g opacity="0.4">
<mask id="mask1_211_682" style="mask-type:alpha" maskUnits="userSpaceOnUse" x="4" y="5" width="48" height="47">
<path d="M24.3779 5.32715C38.5411 2.99384 50.8383 13.4239 51.6318 26.957C52.4018 40.0704 41.4814 51.667 28.3447 51.667C24.0514 51.667 20.0147 50.5007 16.5381 48.4707L14.9912 48.8955L7.62207 41.833L8.11523 40.001C5.5719 35.591 4.40533 30.2473 5.29199 24.6006C6.80875 14.8474 14.6248 6.93721 24.3779 5.32715ZM13.7188 49.2461L8.9082 50.5703C7.18154 51.0603 5.57142 49.4736 6.03809 47.7236L7.28613 43.0811L13.7188 49.2461Z" fill="#01502E"/>
</mask>
<g mask="url(#mask1_211_682)">
<rect x="-13.8232" y="30.1641" width="5.31159" height="55.7122" transform="rotate(-46.1114 -13.8232 30.1641)" fill="#01502E"/>
</g>
</g>
<path d="M20.2002 15.5C20.5981 15.5 20.9964 15.5852 21.3662 15.7559C21.7361 15.9266 22.0906 16.1897 22.3594 16.5771H22.3604L25.0439 20.4277L25.0449 20.4287C25.2466 20.72 25.4357 21.0132 25.5547 21.3232H25.5557C25.701 21.6431 25.7636 21.9467 25.7637 22.2529C25.7637 22.6463 25.632 23.014 25.4385 23.3457C25.2536 23.6626 25.0173 23.9768 24.707 24.2871L23.8291 25.2109L23.8203 25.2207L23.8193 25.2197C23.7921 25.247 23.7877 25.2601 23.7871 25.2617C23.7861 25.2644 23.7803 25.2817 23.7803 25.333C23.7803 25.3518 23.7857 25.38 23.8057 25.4619C23.8356 25.5284 23.8582 25.5851 23.875 25.6338C24.0592 25.9739 24.3935 26.4197 24.8916 27.0088L25.7109 27.9238C25.9901 28.2289 26.276 28.5328 26.5732 28.8301C27.1942 29.451 27.7916 30.0016 28.4111 30.5293H28.4102C28.9981 31.0267 29.4814 31.3528 29.8369 31.541H29.8359C29.878 31.559 29.9134 31.5739 29.9316 31.583L29.9717 31.6025L30.0049 31.6133L30.0205 31.6211C30.0261 31.6216 30.0345 31.6227 30.0469 31.623C30.0653 31.6236 30.0859 31.623 30.1162 31.623C30.1617 31.623 30.1791 31.6167 30.1846 31.6143C30.1918 31.6111 30.2125 31.6 30.2529 31.5596L31.1396 30.6729C31.465 30.3476 31.7784 30.1084 32.0811 29.9414C32.4084 29.7505 32.7528 29.6163 33.1729 29.6162C33.4794 29.6162 33.7836 29.6798 34.1035 29.8252C34.3693 29.946 34.6831 30.1015 35.002 30.3389H35.0029L38.8701 33.0889H38.8711C39.199 33.3159 39.4432 33.5909 39.6172 33.8926L39.6875 34.0234L39.7295 34.1074L39.7383 34.2012C39.7484 34.3125 39.7667 34.4174 39.79 34.5811C39.8117 34.7325 39.833 34.912 39.833 35.1104C39.833 35.6037 39.724 36.1243 39.4775 36.6172C39.2506 37.071 38.9707 37.5036 38.6133 37.9121L38.6035 37.9229C37.9854 38.5904 37.3 39.1039 36.5215 39.418C35.7494 39.7525 34.9106 39.9033 34.0371 39.9033C32.7685 39.9033 31.4162 39.6051 30.0322 38.998V38.9971C28.6424 38.3977 27.2817 37.6096 25.9277 36.6357L25.9268 36.6348C24.5494 35.6373 23.2701 34.5238 22.043 33.3203L22.04 33.3174L22.3936 32.9629L22.04 33.3164C20.8064 32.0827 19.7168 30.7802 18.7246 29.4336L18.7207 29.4287C17.7464 28.0742 16.9561 26.7116 16.3789 25.3408C15.7976 23.9603 15.5 22.6109 15.5 21.3203C15.5 20.4687 15.6505 19.6349 15.9561 18.8711C16.265 18.0753 16.7522 17.3604 17.4336 16.7295C18.2565 15.9123 19.1911 15.5 20.2002 15.5Z" fill="#01502E" stroke="#B5DDC2"/>
</svg>
